%TF.GenerationSoftware,KiCad,Pcbnew,10.0.4*%
%TF.CreationDate,2026-07-14T13:23:05-07:00*%
%TF.ProjectId,Mesh_Injection_Apparatus_v1_015,4d657368-5f49-46e6-9a65-6374696f6e5f,rev?*%
%TF.SameCoordinates,Original*%
%TF.FileFunction,Copper,L1,Top*%
%TF.FilePolarity,Positive*%
%FSLAX46Y46*%
G04 Gerber Fmt 4.6, Leading zero omitted, Abs format (unit mm)*
G04 Created by KiCad (PCBNEW 10.0.4) date 2026-07-14 13:23:05*
%MOMM*%
%LPD*%
G01*
G04 APERTURE LIST*
G04 Aperture macros list*
%AMRoundRect*
0 Rectangle with rounded corners*
0 $1 Rounding radius*
0 $2 $3 $4 $5 $6 $7 $8 $9 X,Y pos of 4 corners*
0 Add a 4 corners polygon primitive as box body*
4,1,4,$2,$3,$4,$5,$6,$7,$8,$9,$2,$3,0*
0 Add four circle primitives for the rounded corners*
1,1,$1+$1,$2,$3*
1,1,$1+$1,$4,$5*
1,1,$1+$1,$6,$7*
1,1,$1+$1,$8,$9*
0 Add four rect primitives between the rounded corners*
20,1,$1+$1,$2,$3,$4,$5,0*
20,1,$1+$1,$4,$5,$6,$7,0*
20,1,$1+$1,$6,$7,$8,$9,0*
20,1,$1+$1,$8,$9,$2,$3,0*%
G04 Aperture macros list end*
%TA.AperFunction,SMDPad,CuDef*%
%ADD10R,1.000000X8.000000*%
%TD*%
%TA.AperFunction,SMDPad,CuDef*%
%ADD11R,1.510000X2.080000*%
%TD*%
%TA.AperFunction,SMDPad,CuDef*%
%ADD12R,0.700000X1.200000*%
%TD*%
%TA.AperFunction,SMDPad,CuDef*%
%ADD13R,1.000000X0.800000*%
%TD*%
%TA.AperFunction,SMDPad,CuDef*%
%ADD14R,1.000000X1.200000*%
%TD*%
%TA.AperFunction,SMDPad,CuDef*%
%ADD15R,1.000000X2.800000*%
%TD*%
%TA.AperFunction,SMDPad,CuDef*%
%ADD16R,1.300000X1.900000*%
%TD*%
%TA.AperFunction,SMDPad,CuDef*%
%ADD17RoundRect,0.250000X-0.475000X0.250000X-0.475000X-0.250000X0.475000X-0.250000X0.475000X0.250000X0*%
%TD*%
%TA.AperFunction,SMDPad,CuDef*%
%ADD18RoundRect,0.250000X0.475000X-0.250000X0.475000X0.250000X-0.475000X0.250000X-0.475000X-0.250000X0*%
%TD*%
%TA.AperFunction,SMDPad,CuDef*%
%ADD19RoundRect,0.250000X-0.250000X-0.475000X0.250000X-0.475000X0.250000X0.475000X-0.250000X0.475000X0*%
%TD*%
%TA.AperFunction,SMDPad,CuDef*%
%ADD20RoundRect,0.375000X-0.625000X-0.375000X0.625000X-0.375000X0.625000X0.375000X-0.625000X0.375000X0*%
%TD*%
%TA.AperFunction,SMDPad,CuDef*%
%ADD21RoundRect,0.500000X-0.500000X-1.400000X0.500000X-1.400000X0.500000X1.400000X-0.500000X1.400000X0*%
%TD*%
%TA.AperFunction,SMDPad,CuDef*%
%ADD22RoundRect,0.250000X0.250000X0.475000X-0.250000X0.475000X-0.250000X-0.475000X0.250000X-0.475000X0*%
%TD*%
%TA.AperFunction,SMDPad,CuDef*%
%ADD23R,0.900000X1.500000*%
%TD*%
%TA.AperFunction,SMDPad,CuDef*%
%ADD24R,1.500000X0.900000*%
%TD*%
%TA.AperFunction,HeatsinkPad*%
%ADD25C,0.600000*%
%TD*%
%TA.AperFunction,HeatsinkPad*%
%ADD26R,3.900000X3.900000*%
%TD*%
%TA.AperFunction,SMDPad,CuDef*%
%ADD27RoundRect,0.250000X-0.350000X-0.450000X0.350000X-0.450000X0.350000X0.450000X-0.350000X0.450000X0*%
%TD*%
%TA.AperFunction,SMDPad,CuDef*%
%ADD28RoundRect,0.250000X-0.250000X0.275000X-0.250000X-0.275000X0.250000X-0.275000X0.250000X0.275000X0*%
%TD*%
%TA.AperFunction,SMDPad,CuDef*%
%ADD29RoundRect,0.250000X-0.275000X0.850000X-0.275000X-0.850000X0.275000X-0.850000X0.275000X0.850000X0*%
%TD*%
%TA.AperFunction,ViaPad*%
%ADD30C,0.600000*%
%TD*%
%TA.AperFunction,Conductor*%
%ADD31C,0.200000*%
%TD*%
%TA.AperFunction,Conductor*%
%ADD32C,0.500000*%
%TD*%
G04 APERTURE END LIST*
D10*
%TO.P,REF\u002A\u002A,1*%
%TO.N,+5V*%
X156050000Y-71150000D03*
%TO.P,REF\u002A\u002A,2*%
%TO.N,Net-(J2-D-)*%
X158500000Y-71150000D03*
%TO.P,REF\u002A\u002A,3*%
%TO.N,Net-(J2-D+)*%
X161000000Y-71150000D03*
%TO.P,REF\u002A\u002A,4*%
%TO.N,GND*%
X163500000Y-71150000D03*
%TD*%
D11*
%TO.P,U2,1,GND_1*%
%TO.N,GND*%
X171080000Y-86000000D03*
%TO.P,U2,2,GND_2*%
X168540000Y-86000000D03*
%TO.P,U2,3,GND_3*%
X166000000Y-86000000D03*
%TO.P,U2,4,GND_4*%
X158400000Y-86000000D03*
%TO.P,U2,5,GND_5*%
X155860000Y-86000000D03*
%TO.P,U2,6,RXEN_6*%
%TO.N,Net-(U1-IO7)*%
X153320000Y-86000000D03*
%TO.P,U2,7,TXEN_7*%
%TO.N,Net-(U2-DIO2)*%
X150780000Y-86000000D03*
%TO.P,U2,8,DIO2_8*%
X148240000Y-86000000D03*
%TO.P,U2,9,VCC_9*%
%TO.N,+3V3*%
X145700000Y-86000000D03*
%TO.P,U2,10,VCC_10*%
X143160000Y-86000000D03*
%TO.P,U2,11,GND_11*%
%TO.N,GND*%
X140620000Y-86000000D03*
%TO.P,U2,12,GND_12*%
X140620000Y-109150000D03*
%TO.P,U2,13,DIO1_13*%
%TO.N,Net-(U1-IO14)*%
X143160000Y-109150000D03*
%TO.P,U2,14,BUSY_14*%
%TO.N,Net-(U1-IO13)*%
X145700000Y-109150000D03*
%TO.P,U2,15,~{RST}_15*%
%TO.N,Net-(U1-IO12)*%
X148240000Y-109150000D03*
%TO.P,U2,16,MISO_16*%
%TO.N,Net-(J1-DAT0)*%
X150780000Y-109150000D03*
%TO.P,U2,17,MOSI_17*%
X153320000Y-109150000D03*
%TO.P,U2,18,SCK_18*%
%TO.N,Net-(J1-CLK)*%
X155860000Y-109150000D03*
%TO.P,U2,19,NSS_19*%
%TO.N,Net-(U1-IO8)*%
X158400000Y-109150000D03*
%TO.P,U2,20,GND_20*%
%TO.N,GND*%
X166000000Y-109150000D03*
%TO.P,U2,21,ANT_21*%
%TO.N,Net-(J3-In)*%
X168540000Y-109150000D03*
%TO.P,U2,22,GND_22*%
%TO.N,GND*%
X171080000Y-109150000D03*
%TD*%
D12*
%TO.P,J1,1,DAT2_1*%
%TO.N,unconnected-(J1-DAT2-Pad1)*%
X148939404Y-116550313D03*
%TO.P,J1,2,DAT3/CD_2*%
%TO.N,Net-(J1-DAT3{slash}CD)*%
X147839404Y-116550313D03*
%TO.P,J1,3,CMD_3*%
%TO.N,Net-(J1-CMD)*%
X146739404Y-116550313D03*
%TO.P,J1,4,VDD_4*%
%TO.N,+3V3*%
X145639404Y-116550313D03*
%TO.P,J1,5,CLK_5*%
%TO.N,Net-(J1-CLK)*%
X144539404Y-116550313D03*
%TO.P,J1,6,VSS_6*%
%TO.N,GND*%
X143439404Y-116550313D03*
%TO.P,J1,7,DAT0_7*%
%TO.N,Net-(J1-DAT0)*%
X142339404Y-116550313D03*
%TO.P,J1,8,DAT1_8*%
%TO.N,unconnected-(J1-DAT1-Pad8)*%
X141239404Y-116550313D03*
%TO.P,J1,9,DET_B_9*%
%TO.N,unconnected-(J1-DET_B-Pad9)*%
X140289404Y-116550313D03*
D13*
%TO.P,J1,10,DET_A_10*%
%TO.N,Net-(J1-DET_A)*%
X139339404Y-127050313D03*
D14*
%TO.P,J1,SH,SHIELD_SH*%
%TO.N,GND*%
X139339404Y-120850313D03*
D15*
X139339404Y-131200313D03*
D14*
X150489404Y-116550313D03*
D16*
X152839404Y-131650313D03*
%TD*%
D17*
%TO.P,C3,1*%
%TO.N,GND*%
X145500000Y-80525000D03*
%TO.P,C3,2*%
%TO.N,+3V3*%
X145500000Y-82425000D03*
%TD*%
D18*
%TO.P,C1,1*%
%TO.N,GND*%
X178981637Y-82882298D03*
%TO.P,C1,2*%
%TO.N,+3V3*%
X178981637Y-80982298D03*
%TD*%
D19*
%TO.P,C6,1*%
%TO.N,GND*%
X144100000Y-113050000D03*
%TO.P,C6,2*%
%TO.N,+3V3*%
X146000000Y-113050000D03*
%TD*%
D18*
%TO.P,C2,1*%
%TO.N,GND*%
X178981637Y-78882298D03*
%TO.P,C2,2*%
%TO.N,+3V3*%
X178981637Y-76982298D03*
%TD*%
D20*
%TO.P,U3,1,GND_1*%
%TO.N,GND*%
X170162500Y-77737500D03*
%TO.P,U3,2,VO_2*%
%TO.N,+3V3*%
X170162500Y-80037500D03*
D21*
X176462500Y-80037500D03*
D20*
%TO.P,U3,3,VI_3*%
%TO.N,+5V*%
X170162500Y-82337500D03*
%TD*%
D22*
%TO.P,C4,1*%
%TO.N,GND*%
X155000000Y-82925000D03*
%TO.P,C4,2*%
%TO.N,+3V3*%
X153100000Y-82925000D03*
%TD*%
D23*
%TO.P,U1,1,GND_1*%
%TO.N,GND*%
X175408678Y-114536796D03*
%TO.P,U1,2,3V3_2*%
%TO.N,+3V3*%
X174138678Y-114536796D03*
%TO.P,U1,3,EN_3*%
%TO.N,Net-(U1-EN)*%
X172868678Y-114536796D03*
%TO.P,U1,4,IO4_4*%
%TO.N,Net-(J1-DAT3{slash}CD)*%
X171598678Y-114536796D03*
%TO.P,U1,5,IO5_5*%
%TO.N,Net-(J1-DET_A)*%
X170328678Y-114536796D03*
%TO.P,U1,6,IO6_6*%
%TO.N,unconnected-(U1-IO6-Pad6)*%
X169058678Y-114536796D03*
%TO.P,U1,7,IO7_7*%
%TO.N,Net-(U1-IO7)*%
X167788678Y-114536796D03*
%TO.P,U1,8,IO15_8*%
%TO.N,unconnected-(U1-IO15-Pad8)*%
X166518678Y-114536796D03*
%TO.P,U1,9,IO16_9*%
%TO.N,unconnected-(U1-IO16-Pad9)*%
X165248678Y-114536796D03*
%TO.P,U1,10,IO17_10*%
%TO.N,unconnected-(U1-IO17-Pad10)*%
X163978678Y-114536796D03*
%TO.P,U1,11,IO18_11*%
%TO.N,unconnected-(U1-IO18-Pad11)*%
X162708678Y-114536796D03*
%TO.P,U1,12,IO8_12*%
%TO.N,Net-(U1-IO8)*%
X161438678Y-114536796D03*
%TO.P,U1,13,USB_D-_13*%
%TO.N,Net-(J2-D-)*%
X160168678Y-114536796D03*
%TO.P,U1,14,USB_D+_14*%
%TO.N,Net-(J2-D+)*%
X158898678Y-114536796D03*
D24*
%TO.P,U1,15,IO3_15*%
%TO.N,unconnected-(U1-IO3-Pad15)*%
X157648678Y-116301796D03*
%TO.P,U1,16,IO46_16*%
%TO.N,unconnected-(U1-IO46-Pad16)*%
X157648678Y-117571796D03*
%TO.P,U1,17,IO9_17*%
%TO.N,Net-(J1-CLK)*%
X157648678Y-118841796D03*
%TO.P,U1,18,IO10_18*%
%TO.N,Net-(J1-CMD)*%
X157648678Y-120111796D03*
%TO.P,U1,19,IO11_19*%
%TO.N,Net-(J1-DAT0)*%
X157648678Y-121381796D03*
%TO.P,U1,20,IO12_20*%
%TO.N,Net-(U1-IO12)*%
X157648678Y-122651796D03*
%TO.P,U1,21,IO13_21*%
%TO.N,Net-(U1-IO13)*%
X157648678Y-123921796D03*
%TO.P,U1,22,IO14_22*%
%TO.N,Net-(U1-IO14)*%
X157648678Y-125191796D03*
%TO.P,U1,23,IO21_23*%
%TO.N,unconnected-(U1-IO21-Pad23)*%
X157648678Y-126461796D03*
%TO.P,U1,24,IO47_24*%
%TO.N,unconnected-(U1-IO47-Pad24)*%
X157648678Y-127731796D03*
%TO.P,U1,25,IO48_25*%
%TO.N,unconnected-(U1-IO48-Pad25)*%
X157648678Y-129001796D03*
%TO.P,U1,26,IO45_26*%
%TO.N,unconnected-(U1-IO45-Pad26)*%
X157648678Y-130271796D03*
D23*
%TO.P,U1,27,IO0_27*%
%TO.N,unconnected-(U1-IO0-Pad27)*%
X158898678Y-132036796D03*
%TO.P,U1,28,IO35_28*%
%TO.N,unconnected-(U1-IO35-Pad28)*%
X160168678Y-132036796D03*
%TO.P,U1,29,IO36_29*%
%TO.N,unconnected-(U1-IO36-Pad29)*%
X161438678Y-132036796D03*
%TO.P,U1,30,IO37_30*%
%TO.N,unconnected-(U1-IO37-Pad30)*%
X162708678Y-132036796D03*
%TO.P,U1,31,IO38_31*%
%TO.N,unconnected-(U1-IO38-Pad31)*%
X163978678Y-132036796D03*
%TO.P,U1,32,IO39_32*%
%TO.N,unconnected-(U1-IO39-Pad32)*%
X165248678Y-132036796D03*
%TO.P,U1,33,IO40_33*%
%TO.N,unconnected-(U1-IO40-Pad33)*%
X166518678Y-132036796D03*
%TO.P,U1,34,IO41_34*%
%TO.N,unconnected-(U1-IO41-Pad34)*%
X167788678Y-132036796D03*
%TO.P,U1,35,IO42_35*%
%TO.N,unconnected-(U1-IO42-Pad35)*%
X169058678Y-132036796D03*
%TO.P,U1,36,RXD0_36*%
%TO.N,unconnected-(U1-RXD0-Pad36)*%
X170328678Y-132036796D03*
%TO.P,U1,37,TXD0_37*%
%TO.N,unconnected-(U1-TXD0-Pad37)*%
X171598678Y-132036796D03*
%TO.P,U1,38,IO2_38*%
%TO.N,unconnected-(U1-IO2-Pad38)*%
X172868678Y-132036796D03*
%TO.P,U1,39,IO1_39*%
%TO.N,unconnected-(U1-IO1-Pad39)*%
X174138678Y-132036796D03*
%TO.P,U1,40,GND_40*%
%TO.N,GND*%
X175408678Y-132036796D03*
D25*
%TO.P,U1,41,GND_41*%
X168388678Y-120386796D03*
X166988678Y-120386796D03*
X169088678Y-121086796D03*
X167688678Y-121086796D03*
X166288678Y-121086796D03*
X168388678Y-121786796D03*
D26*
X167688678Y-121786796D03*
D25*
X166988678Y-121786796D03*
X169088678Y-122486796D03*
X167688678Y-122486796D03*
X166288678Y-122486796D03*
X168388678Y-123186796D03*
X166988678Y-123186796D03*
%TD*%
D27*
%TO.P,R1,1*%
%TO.N,+3V3*%
X168680642Y-112500000D03*
%TO.P,R1,2*%
%TO.N,Net-(U1-EN)*%
X170680642Y-112500000D03*
%TD*%
D28*
%TO.P,J3,1,In_1*%
%TO.N,Net-(J3-In)*%
X140025000Y-112028757D03*
D29*
%TO.P,J3,2,Ext_2*%
%TO.N,GND*%
X141500000Y-113553757D03*
X138550000Y-113553757D03*
%TD*%
D19*
%TO.P,C5,1*%
%TO.N,GND*%
X166000000Y-80768750D03*
%TO.P,C5,2*%
%TO.N,+5V*%
X167900000Y-80768750D03*
%TD*%
D30*
%TO.N,*%
X-770000000Y-120000000D03*
%TO.N,Net-(J2-D-)*%
X160000000Y-112500000D03*
X160000000Y-78500000D03*
%TO.N,Net-(J2-D+)*%
X159199997Y-112500000D03*
X161000000Y-76000000D03*
%TO.N,GND*%
X175320000Y-132150000D03*
X150489404Y-116550313D03*
X138550000Y-113553757D03*
X170162500Y-77737500D03*
X139339404Y-120850313D03*
X145500000Y-80500000D03*
X141500000Y-113553757D03*
X175320000Y-114650000D03*
X139339404Y-131200313D03*
X166000000Y-109150000D03*
X144100000Y-113050000D03*
X178981637Y-78882298D03*
X171080000Y-109150000D03*
X156000000Y-86000000D03*
X152839404Y-131650313D03*
X166000000Y-86000000D03*
X155000000Y-82925000D03*
X178981637Y-82882298D03*
X140620000Y-109150000D03*
X166000000Y-80768750D03*
X158400000Y-86000000D03*
X171000000Y-86000000D03*
X140500000Y-86000000D03*
X168500000Y-86000000D03*
X143439404Y-116550313D03*
%TO.N,Net-(U1-IO7)*%
X165339302Y-112333604D03*
X165313933Y-106098766D03*
%TO.N,Net-(U1-IO14)*%
X147936499Y-111250240D03*
X152680940Y-114643023D03*
%TO.N,Net-(U1-IO13)*%
X146457349Y-110609535D03*
X152392046Y-113304372D03*
%TO.N,Net-(U1-IO12)*%
X154805304Y-113369424D03*
X148240000Y-109150000D03*
%TO.N,Net-(J1-DAT0)*%
X159185266Y-119420860D03*
X153320000Y-109150000D03*
%TO.N,Net-(J1-CLK)*%
X155860000Y-109150000D03*
X157560000Y-118955000D03*
X147608005Y-118908419D03*
X155860000Y-113108950D03*
%TO.N,Net-(U1-IO8)*%
X161308055Y-112209481D03*
X161133648Y-109157351D03*
%TO.N,Net-(J1-DAT3{slash}CD)*%
X153673860Y-115630813D03*
X171510000Y-114650000D03*
%TO.N,Net-(J1-CMD)*%
X153507073Y-120231298D03*
X156334981Y-120225000D03*
%TO.N,Net-(J1-DET_A)*%
X159775265Y-120684301D03*
X153363838Y-121438255D03*
%TD*%
%TO.N,GND*%
D31*
X163400000Y-77000000D02*
X163400000Y-71150000D01*
X163400000Y-77000000D02*
X164137500Y-77737500D01*
X164137500Y-77737500D02*
X170162500Y-77737500D01*
X166000000Y-80768750D02*
X163400000Y-78168750D01*
X163400000Y-78168750D02*
X163400000Y-77000000D01*
%TO.N,+5V*%
D32*
X156050000Y-79768750D02*
X156050000Y-74900472D01*
X158612500Y-82331250D02*
X156050000Y-79768750D01*
X167900000Y-80768750D02*
X167900000Y-82231250D01*
X169362500Y-82331250D02*
X158612500Y-82331250D01*
%TO.N,Net-(J2-D-)*%
D31*
X160080000Y-112580000D02*
X160080000Y-114650000D01*
X158500000Y-77000000D02*
X158500000Y-74750472D01*
X160000000Y-78500000D02*
X158500000Y-77000000D01*
%TO.N,Net-(J2-D+)*%
X159199997Y-112500000D02*
X159199997Y-112920003D01*
X158810000Y-113310000D02*
X158810000Y-114650000D01*
X161000000Y-76000000D02*
X161000000Y-74750472D01*
X159199997Y-112920003D02*
X158810000Y-113310000D01*
%TO.N,Net-(U1-IO7)*%
X153320000Y-94104833D02*
X165313933Y-106098766D01*
X153320000Y-86000000D02*
X153320000Y-94104833D01*
X167282208Y-113292441D02*
X165339302Y-113292441D01*
X165339302Y-113292441D02*
X165339302Y-112333604D01*
X167700000Y-113710233D02*
X167282208Y-113292441D01*
X167700000Y-114650000D02*
X167700000Y-113710233D01*
%TO.N,Net-(U2-DIO2)*%
X150780000Y-86000000D02*
X148240000Y-86000000D01*
%TO.N,+3V3*%
D32*
X172150000Y-84350000D02*
X176462500Y-80037500D01*
X144810000Y-84350000D02*
X146000000Y-84350000D01*
X145639404Y-115750313D02*
X147248325Y-114141392D01*
X146000000Y-82925000D02*
X146000000Y-84350000D01*
X168500000Y-112500000D02*
X167600000Y-112500000D01*
X145639404Y-116550313D02*
X145639404Y-115750313D01*
X176462500Y-108962500D02*
X174050000Y-111375000D01*
X146000000Y-113050000D02*
X147091392Y-114141392D01*
X146000000Y-84350000D02*
X147350000Y-84350000D01*
X178036839Y-80037500D02*
X178981637Y-80982298D01*
X153100000Y-82925000D02*
X151675000Y-84350000D01*
X176462500Y-79501435D02*
X178981637Y-76982298D01*
D31*
X151200000Y-114073352D02*
X151131960Y-114141392D01*
D32*
X151675000Y-84350000D02*
X172150000Y-84350000D01*
X166500000Y-111400000D02*
X166825838Y-111074162D01*
X170162500Y-80037500D02*
X176462500Y-80037500D01*
X176462500Y-80037500D02*
X178036839Y-80037500D01*
X166825838Y-111074162D02*
X171846419Y-111074162D01*
X155500000Y-111400000D02*
X152000000Y-111400000D01*
X167600000Y-112500000D02*
X166500000Y-111400000D01*
X147248325Y-114141392D02*
X151131960Y-114141392D01*
X152000000Y-111400000D02*
X151200000Y-111400000D01*
X177037500Y-80612500D02*
X176462500Y-80037500D01*
X145700000Y-86000000D02*
X147350000Y-84350000D01*
D31*
X147091392Y-114141392D02*
X147248325Y-114141392D01*
D32*
X171846419Y-111074162D02*
X176462500Y-106458081D01*
X176462500Y-80037500D02*
X176462500Y-79501435D01*
X143160000Y-86000000D02*
X144810000Y-84350000D01*
X147350000Y-84350000D02*
X151675000Y-84350000D01*
X166500000Y-111400000D02*
X155500000Y-111400000D01*
X145500000Y-82425000D02*
X146000000Y-82925000D01*
X151200000Y-111400000D02*
X151200000Y-114073352D01*
X176462500Y-106458081D02*
X176462500Y-80037500D01*
X176462500Y-80037500D02*
X176462500Y-108962500D01*
X174050000Y-114650000D02*
X174050000Y-111375000D01*
%TO.N,Net-(U1-IO14)*%
D31*
X143160000Y-109150000D02*
X145260240Y-111250240D01*
X156610000Y-125305000D02*
X154476777Y-123171777D01*
X145260240Y-111250240D02*
X147936499Y-111250240D01*
X154476777Y-123171777D02*
X154476777Y-114643023D01*
X154476777Y-114643023D02*
X152680940Y-114643023D01*
X157560000Y-125305000D02*
X156610000Y-125305000D01*
%TO.N,Net-(U1-IO13)*%
X153703811Y-113304372D02*
X155026324Y-114626885D01*
X155026324Y-122451324D02*
X156610000Y-124035000D01*
X156610000Y-124035000D02*
X157560000Y-124035000D01*
X152392046Y-113304372D02*
X153703811Y-113304372D01*
X155026324Y-114626885D02*
X155026324Y-122451324D01*
X145700000Y-109150000D02*
X145700000Y-109852186D01*
X145700000Y-109852186D02*
X146457349Y-110609535D01*
%TO.N,Net-(U1-IO12)*%
X154805304Y-113369424D02*
X155447669Y-114011789D01*
X156610000Y-122765000D02*
X157560000Y-122765000D01*
X155447669Y-121602669D02*
X156610000Y-122765000D01*
X155447669Y-114011789D02*
X155447669Y-121602669D01*
%TO.N,Net-(J1-DAT0)*%
X142339404Y-112270647D02*
X142339404Y-116550313D01*
X150780000Y-109435000D02*
X148364760Y-111850240D01*
X142759811Y-111850240D02*
X142339404Y-112270647D01*
X158378678Y-121381796D02*
X157648678Y-121381796D01*
X150780000Y-109150000D02*
X153320000Y-109150000D01*
X159185266Y-120575208D02*
X158378678Y-121381796D01*
X148364760Y-111850240D02*
X142759811Y-111850240D01*
X159185266Y-119420860D02*
X159185266Y-120575208D01*
X150780000Y-109150000D02*
X150780000Y-109435000D01*
%TO.N,Net-(J1-CLK)*%
X144539404Y-116550313D02*
X144539404Y-117350313D01*
X144539404Y-117350313D02*
X146097510Y-118908419D01*
X157560000Y-118955000D02*
X156610000Y-118955000D01*
X155860000Y-118205000D02*
X155860000Y-113108950D01*
X156610000Y-118955000D02*
X155860000Y-118205000D01*
X146097510Y-118908419D02*
X147608005Y-118908419D01*
%TO.N,Net-(U1-IO8)*%
X161350000Y-114650000D02*
X161308055Y-114608055D01*
X161308055Y-114608055D02*
X161308055Y-112209481D01*
X158400000Y-109150000D02*
X161126297Y-109150000D01*
%TO.N,Net-(J3-In)*%
X140025000Y-112028757D02*
X140025000Y-110623814D01*
X139565000Y-110490000D02*
X139565000Y-107810000D01*
X139565000Y-107810000D02*
X167200000Y-107810000D01*
X140043233Y-110605581D02*
X139680581Y-110605581D01*
X140025000Y-110623814D02*
X140043233Y-110605581D01*
X139680581Y-110605581D02*
X139565000Y-110490000D01*
X167200000Y-107810000D02*
X168540000Y-109150000D01*
%TO.N,Net-(J1-DAT3{slash}CD)*%
X147958904Y-115630813D02*
X153673860Y-115630813D01*
X147839404Y-116550313D02*
X147839404Y-115750313D01*
X147839404Y-115750313D02*
X147958904Y-115630813D01*
%TO.N,Net-(J1-CMD)*%
X157560000Y-120225000D02*
X156334981Y-120225000D01*
X150121706Y-120231298D02*
X153507073Y-120231298D01*
X146739404Y-116550313D02*
X146739404Y-116848996D01*
X146739404Y-116848996D02*
X150121706Y-120231298D01*
%TO.N,Net-(J1-DET_A)*%
X165000000Y-118000000D02*
X167840000Y-118000000D01*
X139939404Y-122208891D02*
X140697982Y-121450313D01*
X163350000Y-119650000D02*
X165000000Y-118000000D01*
X159775265Y-120603223D02*
X160728488Y-119650000D01*
X170240000Y-115600000D02*
X170240000Y-114650000D01*
X139339404Y-127050313D02*
X139939404Y-126450313D01*
X140697982Y-121450313D02*
X153353690Y-121450313D01*
X167840000Y-118000000D02*
X170240000Y-115600000D01*
X139939404Y-126450313D02*
X139939404Y-122208891D01*
X160728488Y-119650000D02*
X163350000Y-119650000D01*
%TO.N,Net-(U1-EN)*%
X170500000Y-112500000D02*
X171580000Y-112500000D01*
X172780000Y-113700000D02*
X172780000Y-114650000D01*
X171580000Y-112500000D02*
X172780000Y-113700000D01*
%TD*%
%TA.AperFunction,Conductor*%
%TO.N,GND*%
G36*
X157742539Y-74019685D02*
G01*
X157788294Y-74072489D01*
X157799500Y-74124000D01*
X157799500Y-75169752D01*
X157811131Y-75228229D01*
X157811132Y-75228230D01*
X157855447Y-75294552D01*
X157921769Y-75338867D01*
X157921770Y-75338868D01*
X157980247Y-75350499D01*
X157980250Y-75350500D01*
X157980252Y-75350500D01*
X158075500Y-75350500D01*
X158142539Y-75370185D01*
X158188294Y-75422989D01*
X158199500Y-75474500D01*
X158199500Y-77039562D01*
X158213152Y-77090513D01*
X158219979Y-77115990D01*
X158219980Y-77115991D01*
X158243185Y-77156184D01*
X158259540Y-77184511D01*
X159463181Y-78388152D01*
X159496666Y-78449475D01*
X159499500Y-78475833D01*
X159499500Y-78565891D01*
X159533608Y-78693187D01*
X159566554Y-78750250D01*
X159599500Y-78807314D01*
X159692686Y-78900500D01*
X159806814Y-78966392D01*
X159934108Y-79000500D01*
X159934110Y-79000500D01*
X160065890Y-79000500D01*
X160065892Y-79000500D01*
X160193186Y-78966392D01*
X160307314Y-78900500D01*
X160400500Y-78807314D01*
X160466392Y-78693186D01*
X160500500Y-78565892D01*
X160500500Y-78434108D01*
X160466392Y-78306814D01*
X160400500Y-78192686D01*
X160307314Y-78099500D01*
X160250250Y-78066554D01*
X160193187Y-78033608D01*
X160129539Y-78016554D01*
X160065892Y-77999500D01*
X159975833Y-77999500D01*
X159908794Y-77979815D01*
X159888152Y-77963181D01*
X158836819Y-76911848D01*
X158803334Y-76850525D01*
X158800500Y-76824167D01*
X158800500Y-75474500D01*
X158820185Y-75407461D01*
X158872989Y-75361706D01*
X158924500Y-75350500D01*
X159019750Y-75350500D01*
X159019751Y-75350499D01*
X159034568Y-75347552D01*
X159078229Y-75338868D01*
X159078229Y-75338867D01*
X159078231Y-75338867D01*
X159144552Y-75294552D01*
X159188867Y-75228231D01*
X159188867Y-75228229D01*
X159188868Y-75228229D01*
X159200499Y-75169752D01*
X159200500Y-75169750D01*
X159200500Y-74124000D01*
X159220185Y-74056961D01*
X159272989Y-74011206D01*
X159324500Y-74000000D01*
X160175500Y-74000000D01*
X160242539Y-74019685D01*
X160288294Y-74072489D01*
X160299500Y-74124000D01*
X160299500Y-75169752D01*
X160311131Y-75228229D01*
X160311132Y-75228230D01*
X160355447Y-75294552D01*
X160421769Y-75338867D01*
X160421770Y-75338868D01*
X160480247Y-75350499D01*
X160480250Y-75350500D01*
X160480252Y-75350500D01*
X160575500Y-75350500D01*
X160584185Y-75353050D01*
X160593147Y-75351762D01*
X160617187Y-75362740D01*
X160642539Y-75370185D01*
X160648466Y-75377025D01*
X160656703Y-75380787D01*
X160670992Y-75403021D01*
X160688294Y-75422989D01*
X160690581Y-75433503D01*
X160694477Y-75439565D01*
X160699500Y-75474500D01*
X160699500Y-75541323D01*
X160679815Y-75608362D01*
X160663182Y-75629004D01*
X160599500Y-75692686D01*
X160533608Y-75806812D01*
X160499500Y-75934108D01*
X160499500Y-76065891D01*
X160533608Y-76193187D01*
X160566554Y-76250250D01*
X160599500Y-76307314D01*
X160692686Y-76400500D01*
X160806814Y-76466392D01*
X160934108Y-76500500D01*
X160934110Y-76500500D01*
X161065890Y-76500500D01*
X161065892Y-76500500D01*
X161193186Y-76466392D01*
X161307314Y-76400500D01*
X161400500Y-76307314D01*
X161466392Y-76193186D01*
X161500500Y-76065892D01*
X161500500Y-75934108D01*
X161466392Y-75806814D01*
X161400500Y-75692686D01*
X161336818Y-75629004D01*
X161322113Y-75602073D01*
X161305523Y-75576258D01*
X161304631Y-75570055D01*
X161303334Y-75567680D01*
X161300500Y-75541323D01*
X161300500Y-75474500D01*
X161320185Y-75407461D01*
X161372989Y-75361706D01*
X161424500Y-75350500D01*
X161519750Y-75350500D01*
X161519751Y-75350499D01*
X161534568Y-75347552D01*
X161578229Y-75338868D01*
X161578229Y-75338867D01*
X161578231Y-75338867D01*
X161644552Y-75294552D01*
X161688867Y-75228231D01*
X161688867Y-75228229D01*
X161688868Y-75228229D01*
X161700499Y-75169752D01*
X161700500Y-75169750D01*
X161700500Y-74124000D01*
X161720185Y-74056961D01*
X161772989Y-74011206D01*
X161824500Y-74000000D01*
X163386696Y-74000000D01*
X163453735Y-74019685D01*
X163499490Y-74072489D01*
X163506471Y-74091907D01*
X163533608Y-74193187D01*
X163566554Y-74250250D01*
X163599500Y-74307314D01*
X163692686Y-74400500D01*
X163806814Y-74466392D01*
X163934108Y-74500500D01*
X182880725Y-74500500D01*
X182947764Y-74520185D01*
X182993519Y-74572989D01*
X183004721Y-74623458D01*
X183210925Y-99161754D01*
X183191804Y-99228957D01*
X183139386Y-99275154D01*
X183086929Y-99286796D01*
X177037000Y-99286796D01*
X176969961Y-99267111D01*
X176924206Y-99214307D01*
X176913000Y-99162796D01*
X176913000Y-82260885D01*
X176932685Y-82193846D01*
X176985489Y-82148091D01*
X177025774Y-82137394D01*
X177089696Y-82131586D01*
X177252106Y-82080978D01*
X177397685Y-81992972D01*
X177517972Y-81872685D01*
X177605978Y-81727106D01*
X177656586Y-81564696D01*
X177663000Y-81494116D01*
X177663000Y-80612000D01*
X177665550Y-80603314D01*
X177664262Y-80594353D01*
X177675240Y-80570312D01*
X177682685Y-80544961D01*
X177689525Y-80539033D01*
X177693287Y-80530797D01*
X177715521Y-80516507D01*
X177735489Y-80499206D01*
X177746003Y-80496918D01*
X177752065Y-80493023D01*
X177787000Y-80488000D01*
X177798874Y-80488000D01*
X177865913Y-80507685D01*
X177886555Y-80524319D01*
X178019818Y-80657582D01*
X178053303Y-80718905D01*
X178056137Y-80745263D01*
X178056137Y-81286567D01*
X178058990Y-81316997D01*
X178058990Y-81316999D01*
X178088669Y-81401813D01*
X178103844Y-81445180D01*
X178184487Y-81554448D01*
X178293755Y-81635091D01*
X178326483Y-81646543D01*
X178421936Y-81679944D01*
X178452367Y-81682798D01*
X178452371Y-81682798D01*
X179510907Y-81682798D01*
X179541336Y-81679944D01*
X179541338Y-81679944D01*
X179605427Y-81657517D01*
X179669519Y-81635091D01*
X179778787Y-81554448D01*
X179859430Y-81445180D01*
X179881856Y-81381088D01*
X179904283Y-81316999D01*
X179904283Y-81316997D01*
X179907137Y-81286567D01*
X179907137Y-80678028D01*
X179904283Y-80647598D01*
X179904283Y-80647596D01*
X179870643Y-80551461D01*
X179859430Y-80519416D01*
X179778787Y-80410148D01*
X179669519Y-80329505D01*
X179669517Y-80329504D01*
X179541337Y-80284651D01*
X179510907Y-80281798D01*
X179510903Y-80281798D01*
X178969602Y-80281798D01*
X178902563Y-80262113D01*
X178881921Y-80245479D01*
X178313455Y-79677013D01*
X178313453Y-79677011D01*
X178262089Y-79647356D01*
X178210727Y-79617701D01*
X178198619Y-79614457D01*
X178186512Y-79611213D01*
X178186509Y-79611212D01*
X178148317Y-79600978D01*
X178096148Y-79587000D01*
X178096147Y-79587000D01*
X177787000Y-79587000D01*
X177719961Y-79567315D01*
X177674206Y-79514511D01*
X177663000Y-79463000D01*
X177663000Y-78989400D01*
X177682685Y-78922361D01*
X177699319Y-78901719D01*
X178881922Y-77719117D01*
X178943245Y-77685632D01*
X178969603Y-77682798D01*
X179510907Y-77682798D01*
X179541336Y-77679944D01*
X179541338Y-77679944D01*
X179605427Y-77657517D01*
X179669519Y-77635091D01*
X179778787Y-77554448D01*
X179859430Y-77445180D01*
X179881856Y-77381088D01*
X179904283Y-77316999D01*
X179904283Y-77316997D01*
X179907137Y-77286567D01*
X179907137Y-76678028D01*
X179904283Y-76647598D01*
X179904283Y-76647596D01*
X179859430Y-76519417D01*
X179859429Y-76519415D01*
X179845469Y-76500500D01*
X179778787Y-76410148D01*
X179669519Y-76329505D01*
X179669517Y-76329504D01*
X179541337Y-76284651D01*
X179510907Y-76281798D01*
X179510903Y-76281798D01*
X178452371Y-76281798D01*
X178452367Y-76281798D01*
X178421937Y-76284651D01*
X178421935Y-76284651D01*
X178293756Y-76329504D01*
X178293754Y-76329505D01*
X178184487Y-76410148D01*
X178103844Y-76519415D01*
X178103843Y-76519417D01*
X178058990Y-76647596D01*
X178058990Y-76647598D01*
X178056137Y-76678028D01*
X178056137Y-77219332D01*
X178036452Y-77286371D01*
X178019818Y-77307013D01*
X177366640Y-77960190D01*
X177305317Y-77993675D01*
X177242071Y-77990895D01*
X177089696Y-77943414D01*
X177089694Y-77943413D01*
X177089692Y-77943413D01*
X177040278Y-77938923D01*
X177019116Y-77937000D01*
X175905884Y-77937000D01*
X175886645Y-77938748D01*
X175835307Y-77943413D01*
X175672893Y-77994022D01*
X175527311Y-78082030D01*
X175407030Y-78202311D01*
X175319022Y-78347893D01*
X175268413Y-78510307D01*
X175262000Y-78580886D01*
X175262000Y-79463000D01*
X175242315Y-79530039D01*
X175189511Y-79575794D01*
X175138000Y-79587000D01*
X171461998Y-79587000D01*
X171394959Y-79567315D01*
X171349204Y-79514511D01*
X171347437Y-79510453D01*
X171290199Y-79372270D01*
X171290198Y-79372267D01*
X171197951Y-79252049D01*
X171077733Y-79159802D01*
X171077729Y-79159800D01*
X171014301Y-79133527D01*
X170937736Y-79101813D01*
X170923671Y-79099961D01*
X170825227Y-79087000D01*
X170825220Y-79087000D01*
X169499780Y-79087000D01*
X169499772Y-79087000D01*
X169387264Y-79101813D01*
X169387263Y-79101813D01*
X169247270Y-79159800D01*
X169127049Y-79252049D01*
X169034800Y-79372270D01*
X168976813Y-79512263D01*
X168976813Y-79512264D01*
X168962000Y-79624772D01*
X168962000Y-80450227D01*
X168976813Y-80562735D01*
X168976813Y-80562736D01*
X169033537Y-80699681D01*
X169034802Y-80702733D01*
X169127049Y-80822951D01*
X169247267Y-80915198D01*
X169387264Y-80973187D01*
X169499780Y-80988000D01*
X169499787Y-80988000D01*
X170825213Y-80988000D01*
X170825220Y-80988000D01*
X170937736Y-80973187D01*
X171077733Y-80915198D01*
X171197951Y-80822951D01*
X171290198Y-80702733D01*
X171347437Y-80564547D01*
X171391278Y-80510144D01*
X171457572Y-80488079D01*
X171461998Y-80488000D01*
X175075535Y-80488000D01*
X175142574Y-80507685D01*
X175188329Y-80560489D01*
X175198273Y-80629647D01*
X175169248Y-80693203D01*
X175163216Y-80699681D01*
X171999716Y-83863181D01*
X171938393Y-83896666D01*
X171912035Y-83899500D01*
X153786890Y-83899500D01*
X153719851Y-83879815D01*
X153674096Y-83827011D01*
X153664152Y-83757853D01*
X153687120Y-83701867D01*
X153752790Y-83612886D01*
X153752789Y-83612886D01*
X153752793Y-83612882D01*
X153775219Y-83548790D01*
X153797646Y-83484701D01*
X153797646Y-83484699D01*
X153800500Y-83454269D01*
X153800500Y-82395730D01*
X153797646Y-82365300D01*
X153797646Y-82365298D01*
X153752793Y-82237119D01*
X153752792Y-82237117D01*
X153672150Y-82127850D01*
X153562882Y-82047207D01*
X153562880Y-82047206D01*
X153434700Y-82002353D01*
X153404270Y-81999500D01*
X153404266Y-81999500D01*
X152795734Y-81999500D01*
X152795730Y-81999500D01*
X152765300Y-82002353D01*
X152765298Y-82002353D01*
X152637119Y-82047206D01*
X152637117Y-82047207D01*
X152527850Y-82127850D01*
X152447207Y-82237117D01*
X152447206Y-82237119D01*
X152402353Y-82365298D01*
X152402353Y-82365300D01*
X152399500Y-82395730D01*
X152399500Y-82937035D01*
X152379815Y-83004074D01*
X152363181Y-83024716D01*
X151524716Y-83863181D01*
X151463393Y-83896666D01*
X151437035Y-83899500D01*
X146574500Y-83899500D01*
X146507461Y-83879815D01*
X146461706Y-83827011D01*
X146450500Y-83775500D01*
X146450500Y-82865692D01*
X146428266Y-82782715D01*
X146424583Y-82739040D01*
X146425500Y-82729264D01*
X146425500Y-82120730D01*
X146422646Y-82090300D01*
X146422646Y-82090298D01*
X146377793Y-81962119D01*
X146377792Y-81962117D01*
X146297150Y-81852850D01*
X146187882Y-81772207D01*
X146187880Y-81772206D01*
X146059700Y-81727353D01*
X146029270Y-81724500D01*
X146029266Y-81724500D01*
X144970734Y-81724500D01*
X144970730Y-81724500D01*
X144940300Y-81727353D01*
X144940298Y-81727353D01*
X144812119Y-81772206D01*
X144812117Y-81772207D01*
X144702850Y-81852850D01*
X144622207Y-81962117D01*
X144622206Y-81962119D01*
X144577353Y-82090298D01*
X144577353Y-82090300D01*
X144574500Y-82120730D01*
X144574500Y-82729269D01*
X144577353Y-82759699D01*
X144577353Y-82759701D01*
X144614442Y-82865691D01*
X144622207Y-82887882D01*
X144702850Y-82997150D01*
X144812118Y-83077793D01*
X144854845Y-83092744D01*
X144940299Y-83122646D01*
X144970730Y-83125500D01*
X144970734Y-83125500D01*
X145425500Y-83125500D01*
X145492539Y-83145185D01*
X145538294Y-83197989D01*
X145549500Y-83249500D01*
X145549500Y-83775500D01*
X145529815Y-83842539D01*
X145477011Y-83888294D01*
X145425500Y-83899500D01*
X144750691Y-83899500D01*
X144681944Y-83917920D01*
X144636112Y-83930201D01*
X144636107Y-83930204D01*
X144592695Y-83955267D01*
X144592696Y-83955268D01*
X144533389Y-83989508D01*
X144533383Y-83989513D01*
X143799716Y-84723181D01*
X143738393Y-84756666D01*
X143712035Y-84759500D01*
X142385247Y-84759500D01*
X142326770Y-84771131D01*
X142326769Y-84771132D01*
X142260447Y-84815447D01*
X142216132Y-84881769D01*
X142216131Y-84881770D01*
X142204500Y-84940247D01*
X142204500Y-87059752D01*
X142216131Y-87118229D01*
X142216132Y-87118230D01*
X142260447Y-87184552D01*
X142326769Y-87228867D01*
X142326770Y-87228868D01*
X142385247Y-87240499D01*
X142385250Y-87240500D01*
X142385252Y-87240500D01*
X143934750Y-87240500D01*
X143934751Y-87240499D01*
X143949568Y-87237552D01*
X143993229Y-87228868D01*
X143993229Y-87228867D01*
X143993231Y-87228867D01*
X144059552Y-87184552D01*
X144103867Y-87118231D01*
X144103867Y-87118229D01*
X144103868Y-87118229D01*
X144115499Y-87059752D01*
X144115500Y-87059750D01*
X144115500Y-85732965D01*
X144135185Y-85665926D01*
X144151819Y-85645284D01*
X144532819Y-85264284D01*
X144594142Y-85230799D01*
X144663834Y-85235783D01*
X144719767Y-85277655D01*
X144744184Y-85343119D01*
X144744500Y-85351965D01*
X144744500Y-87059752D01*
X144756131Y-87118229D01*
X144756132Y-87118230D01*
X144800447Y-87184552D01*
X144866769Y-87228867D01*
X144866770Y-87228868D01*
X144925247Y-87240499D01*
X144925250Y-87240500D01*
X144925252Y-87240500D01*
X146474750Y-87240500D01*
X146474751Y-87240499D01*
X146489568Y-87237552D01*
X146533229Y-87228868D01*
X146533229Y-87228867D01*
X146533231Y-87228867D01*
X146599552Y-87184552D01*
X146643867Y-87118231D01*
X146643867Y-87118229D01*
X146643868Y-87118229D01*
X146655499Y-87059752D01*
X146655500Y-87059750D01*
X146655500Y-85732965D01*
X146675185Y-85665926D01*
X146691819Y-85645284D01*
X147072819Y-85264284D01*
X147134142Y-85230799D01*
X147203834Y-85235783D01*
X147259767Y-85277655D01*
X147284184Y-85343119D01*
X147284500Y-85351965D01*
X147284500Y-87059752D01*
X147296131Y-87118229D01*
X147296132Y-87118230D01*
X147340447Y-87184552D01*
X147406769Y-87228867D01*
X147406770Y-87228868D01*
X147465247Y-87240499D01*
X147465250Y-87240500D01*
X147465252Y-87240500D01*
X149014750Y-87240500D01*
X149014751Y-87240499D01*
X149029568Y-87237552D01*
X149073229Y-87228868D01*
X149073229Y-87228867D01*
X149073231Y-87228867D01*
X149139552Y-87184552D01*
X149183867Y-87118231D01*
X149183867Y-87118229D01*
X149183868Y-87118229D01*
X149195499Y-87059752D01*
X149195500Y-87059750D01*
X149195500Y-86424500D01*
X149215185Y-86357461D01*
X149267989Y-86311706D01*
X149319500Y-86300500D01*
X149700500Y-86300500D01*
X149767539Y-86320185D01*
X149813294Y-86372989D01*
X149824500Y-86424500D01*
X149824500Y-87059752D01*
X149836131Y-87118229D01*
X149836132Y-87118230D01*
X149880447Y-87184552D01*
X149946769Y-87228867D01*
X149946770Y-87228868D01*
X150005247Y-87240499D01*
X150005250Y-87240500D01*
X150005252Y-87240500D01*
X151554750Y-87240500D01*
X151554751Y-87240499D01*
X151569568Y-87237552D01*
X151613229Y-87228868D01*
X151613229Y-87228867D01*
X151613231Y-87228867D01*
X151679552Y-87184552D01*
X151723867Y-87118231D01*
X151723867Y-87118229D01*
X151723868Y-87118229D01*
X151735499Y-87059752D01*
X151735500Y-87059750D01*
X151735500Y-84940244D01*
X151735146Y-84936649D01*
X151735500Y-84934782D01*
X151735500Y-84934160D01*
X151735618Y-84934160D01*
X151748167Y-84868003D01*
X151796234Y-84817295D01*
X151858549Y-84800500D01*
X152241451Y-84800500D01*
X152308490Y-84820185D01*
X152354245Y-84872989D01*
X152364439Y-84934160D01*
X152364500Y-84934160D01*
X152364500Y-84934524D01*
X152364854Y-84936649D01*
X152364500Y-84940244D01*
X152364500Y-87059752D01*
X152376131Y-87118229D01*
X152376132Y-87118230D01*
X152420447Y-87184552D01*
X152486769Y-87228867D01*
X152486770Y-87228868D01*
X152545247Y-87240499D01*
X152545250Y-87240500D01*
X152545252Y-87240500D01*
X152895500Y-87240500D01*
X152962539Y-87260185D01*
X153008294Y-87312989D01*
X153019500Y-87364500D01*
X153019500Y-94144395D01*
X153033152Y-94195346D01*
X153039979Y-94220823D01*
X153039982Y-94220828D01*
X153079535Y-94289337D01*
X153079541Y-94289345D01*
X164777114Y-105986918D01*
X164810599Y-106048241D01*
X164813433Y-106074599D01*
X164813433Y-106164657D01*
X164847541Y-106291953D01*
X164856689Y-106307797D01*
X164913433Y-106406080D01*
X165006619Y-106499266D01*
X165120747Y-106565158D01*
X165248041Y-106599266D01*
X165248043Y-106599266D01*
X165379823Y-106599266D01*
X165379825Y-106599266D01*
X165507119Y-106565158D01*
X165621247Y-106499266D01*
X165714433Y-106406080D01*
X165780325Y-106291952D01*
X165814433Y-106164658D01*
X165814433Y-106032874D01*
X165780325Y-105905580D01*
X165714433Y-105791452D01*
X165621247Y-105698266D01*
X165564183Y-105665320D01*
X165507120Y-105632374D01*
X165443472Y-105615320D01*
X165379825Y-105598266D01*
X165289766Y-105598266D01*
X165222727Y-105578581D01*
X165202085Y-105561947D01*
X153656819Y-94016681D01*
X153623334Y-93955358D01*
X153620500Y-93929000D01*
X153620500Y-87364500D01*
X153640185Y-87297461D01*
X153692989Y-87251706D01*
X153744500Y-87240500D01*
X154094750Y-87240500D01*
X154094751Y-87240499D01*
X154109568Y-87237552D01*
X154153229Y-87228868D01*
X154153229Y-87228867D01*
X154153231Y-87228867D01*
X154219552Y-87184552D01*
X154263867Y-87118231D01*
X154263867Y-87118229D01*
X154263868Y-87118229D01*
X154275499Y-87059752D01*
X154275500Y-87059750D01*
X154275500Y-84940244D01*
X154275146Y-84936649D01*
X154275500Y-84934782D01*
X154275500Y-84934160D01*
X154275618Y-84934160D01*
X154288167Y-84868003D01*
X154336234Y-84817295D01*
X154398549Y-84800500D01*
X172209308Y-84800500D01*
X172209309Y-84800500D01*
X172299673Y-84776286D01*
X172323887Y-84769799D01*
X172426614Y-84710489D01*
X175248041Y-81889060D01*
X175309364Y-81855576D01*
X175379056Y-81860560D01*
X175423403Y-81889061D01*
X175527311Y-81992969D01*
X175527313Y-81992970D01*
X175527315Y-81992972D01*
X175672894Y-82080978D01*
X175835304Y-82131586D01*
X175899223Y-82137394D01*
X175964205Y-82163065D01*
X176004993Y-82219793D01*
X176012000Y-82260885D01*
X176012000Y-106220116D01*
X175992315Y-106287155D01*
X175975681Y-106307797D01*
X171696135Y-110587343D01*
X171634812Y-110620828D01*
X171608454Y-110623662D01*
X169401558Y-110623662D01*
X169334519Y-110603977D01*
X169288764Y-110551173D01*
X169278820Y-110482015D01*
X169307845Y-110418459D01*
X169361994Y-110383659D01*
X169361946Y-110383542D01*
X169362596Y-110383272D01*
X169366623Y-110380685D01*
X169372082Y-110379343D01*
X169373229Y-110378867D01*
X169373231Y-110378867D01*
X169439552Y-110334552D01*
X169483867Y-110268231D01*
X169483867Y-110268229D01*
X169483868Y-110268229D01*
X169495499Y-110209752D01*
X169495500Y-110209750D01*
X169495500Y-108090249D01*
X169495499Y-108090247D01*
X169483868Y-108031770D01*
X169483867Y-108031769D01*
X169439552Y-107965447D01*
X169373230Y-107921132D01*
X169373229Y-107921131D01*
X169314752Y-107909500D01*
X169314748Y-107909500D01*
X167775833Y-107909500D01*
X167708794Y-107889815D01*
X167688152Y-107873181D01*
X167384512Y-107569541D01*
X167384504Y-107569535D01*
X167315995Y-107529982D01*
X167315990Y-107529979D01*
X167290513Y-107523152D01*
X167239562Y-107509500D01*
X139604562Y-107509500D01*
X139525438Y-107509500D01*
X139487224Y-107519739D01*
X139449009Y-107529979D01*
X139449004Y-107529982D01*
X139380495Y-107569535D01*
X139380487Y-107569541D01*
X139324541Y-107625487D01*
X139324535Y-107625495D01*
X139284982Y-107694004D01*
X139284979Y-107694009D01*
X139276975Y-107723880D01*
X139264500Y-107770438D01*
X139264500Y-110529562D01*
X139267527Y-110540858D01*
X139284979Y-110605991D01*
X139284981Y-110605994D01*
X139306220Y-110642781D01*
X139306222Y-110642784D01*
X139312908Y-110654363D01*
X139324540Y-110674511D01*
X139440121Y-110790092D01*
X139496070Y-110846041D01*
X139496072Y-110846042D01*
X139496076Y-110846045D01*
X139564585Y-110885598D01*
X139564592Y-110885602D01*
X139632595Y-110903823D01*
X139656372Y-110918316D01*
X139681703Y-110929885D01*
X139685793Y-110936250D01*
X139692255Y-110940189D01*
X139704421Y-110965236D01*
X139719477Y-110988663D01*
X139721022Y-110999411D01*
X139722783Y-111003036D01*
X139724500Y-111023598D01*
X139724500Y-111206161D01*
X139704815Y-111273200D01*
X139652011Y-111318955D01*
X139641456Y-111323202D01*
X139562117Y-111350964D01*
X139452850Y-111431607D01*
X139372207Y-111540874D01*
X139372206Y-111540876D01*
X139327353Y-111669055D01*
X139327353Y-111669057D01*
X139324500Y-111699487D01*
X139324500Y-112358026D01*
X139327353Y-112388456D01*
X139327353Y-112388457D01*
X139330974Y-112398804D01*
X139334535Y-112468583D01*
X139299805Y-112529210D01*
X139237811Y-112561436D01*
X139213932Y-112563757D01*
X139075000Y-112563757D01*
X139075000Y-114653757D01*
X140975000Y-114653757D01*
X140975000Y-112563757D01*
X140836068Y-112563757D01*
X140769029Y-112544072D01*
X140723274Y-112491268D01*
X140713330Y-112422110D01*
X140719026Y-112398804D01*
X140722646Y-112388457D01*
X140722646Y-112388456D01*
X140725500Y-112358026D01*
X140725500Y-111699487D01*
X140722646Y-111669057D01*
X140722646Y-111669055D01*
X140677793Y-111540876D01*
X140677792Y-111540874D01*
X140676725Y-111539428D01*
X140597150Y-111431607D01*
X140487882Y-111350964D01*
X140408544Y-111323202D01*
X140351769Y-111282480D01*
X140326022Y-111217527D01*
X140325500Y-111206161D01*
X140325500Y-110729514D01*
X140329725Y-110697420D01*
X140335618Y-110675426D01*
X140343733Y-110645143D01*
X140343733Y-110566019D01*
X140323254Y-110489592D01*
X140323250Y-110489585D01*
X140283697Y-110421076D01*
X140283691Y-110421068D01*
X140227745Y-110365122D01*
X140227737Y-110365116D01*
X140159228Y-110325563D01*
X140159223Y-110325560D01*
X140133746Y-110318733D01*
X140082795Y-110305081D01*
X140082793Y-110305081D01*
X139989500Y-110305081D01*
X139922461Y-110285396D01*
X139876706Y-110232592D01*
X139865500Y-110181081D01*
X139865500Y-108234500D01*
X139885185Y-108167461D01*
X139937989Y-108121706D01*
X139989500Y-108110500D01*
X142080500Y-108110500D01*
X142147539Y-108130185D01*
X142193294Y-108182989D01*
X142204500Y-108234500D01*
X142204500Y-110209752D01*
X142216131Y-110268229D01*
X142216132Y-110268230D01*
X142260447Y-110334552D01*
X142326769Y-110378867D01*
X142326770Y-110378868D01*
X142385247Y-110390499D01*
X142385250Y-110390500D01*
X143924167Y-110390500D01*
X143991206Y-110410185D01*
X144011848Y-110426819D01*
X144923088Y-111338059D01*
X144956573Y-111399382D01*
X144951589Y-111469074D01*
X144909717Y-111525007D01*
X144844253Y-111549424D01*
X144835407Y-111549740D01*
X142720249Y-111549740D01*
X142689678Y-111557931D01*
X142643819Y-111570219D01*
X142643818Y-111570220D01*
X142593107Y-111599499D01*
X142593106Y-111599500D01*
X142575301Y-111609779D01*
X142575298Y-111609781D01*
X142098945Y-112086134D01*
X142098939Y-112086142D01*
X142059386Y-112154651D01*
X142059383Y-112154656D01*
X142038904Y-112231086D01*
X142038904Y-115634274D01*
X142019219Y-115701313D01*
X141967954Y-115746353D01*
X141954111Y-115752905D01*
X141911173Y-115761446D01*
X141850707Y-115801848D01*
X141842454Y-115805755D01*
X141816596Y-115809834D01*
X141791618Y-115817656D01*
X141782637Y-115815192D01*
X141773438Y-115816644D01*
X141749480Y-115806096D01*
X141724238Y-115799172D01*
X141720513Y-115796778D01*
X141667634Y-115761445D01*
X141667633Y-115761444D01*
X141609156Y-115749813D01*
X141609152Y-115749813D01*
X140869656Y-115749813D01*
X140869653Y-115749813D01*
X140799195Y-115763828D01*
X140798941Y-115762552D01*
X140742381Y-115768630D01*
X140718493Y-115761616D01*
X140659155Y-115749813D01*
X140659152Y-115749813D01*
X139919656Y-115749813D01*
X139919651Y-115749813D01*
X139861174Y-115761444D01*
X139861173Y-115761445D01*
X139794851Y-115805760D01*
X139750536Y-115872082D01*
X139750535Y-115872083D01*
X139738904Y-115930560D01*
X139738904Y-116876313D01*
X139719219Y-116943352D01*
X139666415Y-116989107D01*
X139614904Y-117000313D01*
X138939404Y-117000313D01*
X138939404Y-120250313D01*
X139689404Y-120250313D01*
X139689404Y-117453610D01*
X139709089Y-117386571D01*
X139761893Y-117340816D01*
X139831051Y-117330872D01*
X139860861Y-117339051D01*
X139861175Y-117339181D01*
X139919651Y-117350812D01*
X139919654Y-117350813D01*
X139919656Y-117350813D01*
X140659154Y-117350813D01*
X140659155Y-117350812D01*
X140673889Y-117347881D01*
X140729614Y-117336798D01*
X140729868Y-117338075D01*
X140786413Y-117331993D01*
X140810303Y-117339007D01*
X140869651Y-117350812D01*
X140869654Y-117350813D01*
X140869656Y-117350813D01*
X141609154Y-117350813D01*
X141609155Y-117350812D01*
X141623972Y-117347865D01*
X141667633Y-117339181D01*
X141667635Y-117339180D01*
X141680069Y-117330872D01*
X141720512Y-117303847D01*
X141787189Y-117282969D01*
X141854569Y-117301453D01*
X141858296Y-117303848D01*
X141911172Y-117339180D01*
X141911174Y-117339181D01*
X141969651Y-117350812D01*
X141969654Y-117350813D01*
X141969656Y-117350813D01*
X142709154Y-117350813D01*
X142709155Y-117350812D01*
X142723972Y-117347865D01*
X142767633Y-117339181D01*
X142767633Y-117339180D01*
X142767635Y-117339180D01*
X142833956Y-117294865D01*
X142878271Y-117228544D01*
X142878271Y-117228542D01*
X142878272Y-117228542D01*
X142889903Y-117170065D01*
X142889904Y-117170063D01*
X142889904Y-115930562D01*
X142889903Y-115930560D01*
X142878272Y-115872083D01*
X142878271Y-115872082D01*
X142833956Y-115805760D01*
X142767634Y-115761445D01*
X142739712Y-115755891D01*
X142677801Y-115723506D01*
X142643227Y-115662790D01*
X142639904Y-115634274D01*
X142639904Y-112446480D01*
X142648548Y-112417039D01*
X142655072Y-112387053D01*
X142658826Y-112382037D01*
X142659589Y-112379441D01*
X142676223Y-112358799D01*
X142847963Y-112187059D01*
X142909286Y-112153574D01*
X142935644Y-112150740D01*
X145257581Y-112150740D01*
X145324620Y-112170425D01*
X145370375Y-112223229D01*
X145380319Y-112292387D01*
X145357351Y-112348372D01*
X145353141Y-112354076D01*
X145347207Y-112362117D01*
X145347206Y-112362119D01*
X145302353Y-112490298D01*
X145302353Y-112490300D01*
X145299500Y-112520730D01*
X145299500Y-113579269D01*
X145302353Y-113609699D01*
X145302353Y-113609701D01*
X145347206Y-113737880D01*
X145347207Y-113737882D01*
X145427850Y-113847150D01*
X145537118Y-113927793D01*
X145579845Y-113942744D01*
X145665299Y-113972646D01*
X145695730Y-113975500D01*
X145695734Y-113975500D01*
X146237035Y-113975500D01*
X146266475Y-113984144D01*
X146296462Y-113990668D01*
X146301477Y-113994422D01*
X146304074Y-113995185D01*
X146324716Y-114011819D01*
X146445074Y-114132177D01*
X146478559Y-114193500D01*
X146473575Y-114263192D01*
X146445074Y-114307539D01*
X145278917Y-115473696D01*
X145278913Y-115473702D01*
X145219605Y-115576425D01*
X145219604Y-115576430D01*
X145188902Y-115691009D01*
X145188516Y-115693947D01*
X145187501Y-115696240D01*
X145186801Y-115698854D01*
X145186393Y-115698744D01*
X145160247Y-115757842D01*
X145101921Y-115796311D01*
X145032056Y-115797139D01*
X144996687Y-115780858D01*
X144967634Y-115761445D01*
X144967633Y-115761444D01*
X144909156Y-115749813D01*
X144909152Y-115749813D01*
X144169656Y-115749813D01*
X144169651Y-115749813D01*
X144111174Y-115761444D01*
X144111173Y-115761445D01*
X144044851Y-115805760D01*
X144000536Y-115872082D01*
X144000535Y-115872083D01*
X143988904Y-115930560D01*
X143988904Y-117170065D01*
X144000535Y-117228542D01*
X144000536Y-117228543D01*
X144044851Y-117294865D01*
X144111173Y-117339180D01*
X144111174Y-117339181D01*
X144156120Y-117348121D01*
X144218031Y-117380505D01*
X144251703Y-117437642D01*
X144259382Y-117466299D01*
X144259386Y-117466308D01*
X144298939Y-117534817D01*
X144298943Y-117534822D01*
X144298944Y-117534824D01*
X145912999Y-119148879D01*
X145981522Y-119188441D01*
X146057948Y-119208919D01*
X147149329Y-119208919D01*
X147216368Y-119228604D01*
X147237010Y-119245238D01*
X147300691Y-119308919D01*
X147414819Y-119374811D01*
X147542113Y-119408919D01*
X147542115Y-119408919D01*
X147673895Y-119408919D01*
X147673897Y-119408919D01*
X147801191Y-119374811D01*
X147915319Y-119308919D01*
X148008505Y-119215733D01*
X148074397Y-119101605D01*
X148108505Y-118974311D01*
X148108505Y-118942430D01*
X148128190Y-118875391D01*
X148180994Y-118829636D01*
X148250152Y-118819692D01*
X148313708Y-118848717D01*
X148320186Y-118854749D01*
X149881246Y-120415809D01*
X149937195Y-120471758D01*
X149937197Y-120471759D01*
X149937201Y-120471762D01*
X149979599Y-120496240D01*
X150005717Y-120511319D01*
X150082144Y-120531798D01*
X150161268Y-120531798D01*
X153048397Y-120531798D01*
X153115436Y-120551483D01*
X153136078Y-120568117D01*
X153199759Y-120631798D01*
X153291395Y-120684704D01*
X153313887Y-120697690D01*
X153321391Y-120700798D01*
X153320152Y-120703789D01*
X153366861Y-120732222D01*
X153397426Y-120795051D01*
X153389172Y-120864431D01*
X153344718Y-120918335D01*
X153305185Y-120933374D01*
X153305796Y-120935652D01*
X153297947Y-120937755D01*
X153297946Y-120937755D01*
X153249625Y-120950702D01*
X153170650Y-120971863D01*
X153056524Y-121037755D01*
X152980784Y-121113495D01*
X152919460Y-121146979D01*
X152893103Y-121149813D01*
X140658420Y-121149813D01*
X140627849Y-121158004D01*
X140581990Y-121170292D01*
X140581989Y-121170293D01*
X140535241Y-121197284D01*
X140535240Y-121197285D01*
X140513472Y-121209852D01*
X140513469Y-121209854D01*
X139901085Y-121822239D01*
X139839762Y-121855724D01*
X139770070Y-121850740D01*
X139714137Y-121808868D01*
X139689720Y-121743404D01*
X139689404Y-121734558D01*
X139689404Y-121450313D01*
X138939404Y-121450313D01*
X138939404Y-125050313D01*
X139514904Y-125050313D01*
X139581943Y-125069998D01*
X139627698Y-125122802D01*
X139638904Y-125174313D01*
X139638904Y-126274480D01*
X139630259Y-126303920D01*
X139623736Y-126333907D01*
X139619981Y-126338922D01*
X139619219Y-126341519D01*
X139602585Y-126362161D01*
X139551252Y-126413494D01*
X139489929Y-126446979D01*
X139463571Y-126449813D01*
X138819651Y-126449813D01*
X138761174Y-126461444D01*
X138761173Y-126461445D01*
X138694851Y-126505760D01*
X138650536Y-126572082D01*
X138650535Y-126572083D01*
X138638904Y-126630560D01*
X138638904Y-127470065D01*
X138650535Y-127528542D01*
X138650536Y-127528543D01*
X138694851Y-127594865D01*
X138761173Y-127639180D01*
X138761174Y-127639181D01*
X138819651Y-127650812D01*
X138819654Y-127650813D01*
X138819656Y-127650813D01*
X139859153Y-127650813D01*
X139891212Y-127644436D01*
X139960803Y-127650663D01*
X140015981Y-127693525D01*
X140039226Y-127759415D01*
X140039404Y-127766053D01*
X140039404Y-130450313D01*
X140739404Y-130450313D01*
X140739404Y-123274313D01*
X140759089Y-123207274D01*
X140811893Y-123161519D01*
X140863404Y-123150313D01*
X149439404Y-123150313D01*
X149439404Y-121874813D01*
X149459089Y-121807774D01*
X149511893Y-121762019D01*
X149563404Y-121750813D01*
X152917220Y-121750813D01*
X152984259Y-121770498D01*
X153004901Y-121787132D01*
X153056524Y-121838755D01*
X153170652Y-121904647D01*
X153297946Y-121938755D01*
X153297948Y-121938755D01*
X153429728Y-121938755D01*
X153429730Y-121938755D01*
X153557024Y-121904647D01*
X153671152Y-121838755D01*
X153764338Y-121745569D01*
X153830230Y-121631441D01*
X153864338Y-121504147D01*
X153864338Y-121372363D01*
X153830230Y-121245069D01*
X153764338Y-121130941D01*
X153671152Y-121037755D01*
X153591239Y-120991617D01*
X153557023Y-120971862D01*
X153549520Y-120968755D01*
X153550754Y-120965774D01*
X153504002Y-120937278D01*
X153473472Y-120874432D01*
X153481766Y-120805056D01*
X153526250Y-120751178D01*
X153565728Y-120736189D01*
X153565115Y-120733901D01*
X153572964Y-120731798D01*
X153572965Y-120731798D01*
X153700259Y-120697690D01*
X153814387Y-120631798D01*
X153907573Y-120538612D01*
X153944890Y-120473976D01*
X153995457Y-120425761D01*
X154064064Y-120412538D01*
X154128929Y-120438506D01*
X154169457Y-120495421D01*
X154176277Y-120535977D01*
X154176277Y-123211339D01*
X154196756Y-123287766D01*
X154196757Y-123287768D01*
X154198417Y-123290642D01*
X154198423Y-123290666D01*
X154198429Y-123290663D01*
X154236317Y-123356288D01*
X156369540Y-125489511D01*
X156425489Y-125545460D01*
X156425491Y-125545461D01*
X156425495Y-125545464D01*
X156494004Y-125585017D01*
X156494011Y-125585021D01*
X156570438Y-125605500D01*
X156585266Y-125605500D01*
X156652305Y-125625185D01*
X156697032Y-125675795D01*
X156703824Y-125689930D01*
X156709811Y-125720027D01*
X156739984Y-125765184D01*
X156743784Y-125773091D01*
X156748071Y-125799267D01*
X156755998Y-125824583D01*
X156753630Y-125833211D01*
X156755077Y-125842042D01*
X156744531Y-125866381D01*
X156737513Y-125891963D01*
X156735120Y-125895687D01*
X156709810Y-125933565D01*
X156709809Y-125933566D01*
X156698178Y-125992043D01*
X156698178Y-126931548D01*
X156709809Y-126990025D01*
X156709810Y-126990026D01*
X156735120Y-127027905D01*
X156755998Y-127094583D01*
X156737513Y-127161963D01*
X156735120Y-127165687D01*
X156709810Y-127203565D01*
X156709809Y-127203566D01*
X156698178Y-127262043D01*
X156698178Y-128201548D01*
X156709809Y-128260025D01*
X156709810Y-128260026D01*
X156735120Y-128297905D01*
X156755998Y-128364583D01*
X156737513Y-128431963D01*
X156735120Y-128435687D01*
X156709810Y-128473565D01*
X156709809Y-128473566D01*
X156698178Y-128532043D01*
X156698178Y-129471548D01*
X156709809Y-129530025D01*
X156709810Y-129530026D01*
X156735120Y-129567905D01*
X156755998Y-129634583D01*
X156737513Y-129701963D01*
X156735120Y-129705687D01*
X156709810Y-129743565D01*
X156709809Y-129743566D01*
X156698178Y-129802043D01*
X156698178Y-130741548D01*
X156709809Y-130800025D01*
X156709810Y-130800026D01*
X156754125Y-130866348D01*
X156820447Y-130910663D01*
X156820448Y-130910664D01*
X156878925Y-130922295D01*
X156878928Y-130922296D01*
X158224711Y-130922296D01*
X158291750Y-130941981D01*
X158337505Y-130994785D01*
X158347449Y-131063943D01*
X158318424Y-131127499D01*
X158312392Y-131133977D01*
X158304126Y-131142242D01*
X158259810Y-131208565D01*
X158259809Y-131208566D01*
X158248178Y-131267043D01*
X158248178Y-132806548D01*
X158259809Y-132865025D01*
X158259810Y-132865026D01*
X158304125Y-132931348D01*
X158370447Y-132975663D01*
X158370448Y-132975664D01*
X158428925Y-132987295D01*
X158428928Y-132987296D01*
X158428930Y-132987296D01*
X159368428Y-132987296D01*
X159368429Y-132987295D01*
X159383246Y-132984348D01*
X159426907Y-132975664D01*
X159426909Y-132975663D01*
X159464786Y-132950354D01*
X159531463Y-132929475D01*
X159598843Y-132947959D01*
X159602570Y-132950354D01*
X159640446Y-132975663D01*
X159640448Y-132975664D01*
X159698925Y-132987295D01*
X159698928Y-132987296D01*
X159698930Y-132987296D01*
X160638428Y-132987296D01*
X160638429Y-132987295D01*
X160653246Y-132984348D01*
X160696907Y-132975664D01*
X160696909Y-132975663D01*
X160734786Y-132950354D01*
X160801463Y-132929475D01*
X160868843Y-132947959D01*
X160872570Y-132950354D01*
X160910446Y-132975663D01*
X160910448Y-132975664D01*
X160968925Y-132987295D01*
X160968928Y-132987296D01*
X160968930Y-132987296D01*
X161908428Y-132987296D01*
X161908429Y-132987295D01*
X161923246Y-132984348D01*
X161966907Y-132975664D01*
X161966909Y-132975663D01*
X162004786Y-132950354D01*
X162071463Y-132929475D01*
X162138843Y-132947959D01*
X162142570Y-132950354D01*
X162180445Y-132975662D01*
X162180447Y-132975663D01*
X162238930Y-132987296D01*
X162238933Y-132987296D01*
X162242739Y-132988053D01*
X162304650Y-133020438D01*
X162339224Y-133081154D01*
X162335485Y-133150923D01*
X162294619Y-133207596D01*
X162229601Y-133233177D01*
X162219881Y-133233664D01*
X138125833Y-133492740D01*
X138058586Y-133473777D01*
X138012266Y-133421468D01*
X138000500Y-133368747D01*
X138000500Y-132600313D01*
X149089404Y-132600313D01*
X151639404Y-132600313D01*
X151639404Y-131250313D01*
X149089404Y-131250313D01*
X149089404Y-132600313D01*
X138000500Y-132600313D01*
X138000500Y-74624500D01*
X138020185Y-74557461D01*
X138072989Y-74511706D01*
X138124500Y-74500500D01*
X155225500Y-74500500D01*
X155292539Y-74520185D01*
X155338294Y-74572989D01*
X155349500Y-74624500D01*
X155349500Y-75169752D01*
X155361131Y-75228229D01*
X155361132Y-75228230D01*
X155405447Y-75294552D01*
X155449762Y-75324162D01*
X155471769Y-75338867D01*
X155499690Y-75344421D01*
X155561601Y-75376804D01*
X155596176Y-75437519D01*
X155599500Y-75466038D01*
X155599500Y-79828059D01*
X155616354Y-79890959D01*
X155630199Y-79942635D01*
X155646923Y-79971600D01*
X155689511Y-80045364D01*
X158335886Y-82691739D01*
X158438613Y-82751049D01*
X158462821Y-82757534D01*
X158462824Y-82757536D01*
X158462825Y-82757536D01*
X158474197Y-82760583D01*
X158553191Y-82781750D01*
X168860414Y-82781750D01*
X168927453Y-82801435D01*
X168973208Y-82854239D01*
X168974975Y-82858298D01*
X168976812Y-82862735D01*
X168976813Y-82862736D01*
X168987228Y-82887880D01*
X169034799Y-83002728D01*
X169034799Y-83002729D01*
X169034801Y-83002732D01*
X169034802Y-83002733D01*
X169127049Y-83122951D01*
X169247267Y-83215198D01*
X169387264Y-83273187D01*
X169499780Y-83288000D01*
X169499787Y-83288000D01*
X170825213Y-83288000D01*
X170825220Y-83288000D01*
X170937736Y-83273187D01*
X171077733Y-83215198D01*
X171197951Y-83122951D01*
X171290198Y-83002733D01*
X171348187Y-82862736D01*
X171363000Y-82750220D01*
X171363000Y-81924780D01*
X171348187Y-81812264D01*
X171290198Y-81672267D01*
X171197951Y-81552049D01*
X171077733Y-81459802D01*
X171077729Y-81459800D01*
X171014301Y-81433527D01*
X170937736Y-81401813D01*
X170923671Y-81399961D01*
X170825227Y-81387000D01*
X170825220Y-81387000D01*
X169499780Y-81387000D01*
X169499772Y-81387000D01*
X169387264Y-81401813D01*
X169387263Y-81401813D01*
X169247270Y-81459800D01*
X169247267Y-81459801D01*
X169247267Y-81459802D01*
X169127049Y-81552049D01*
X169051855Y-81650044D01*
X169034800Y-81672270D01*
X168980152Y-81804203D01*
X168936311Y-81858606D01*
X168870017Y-81880671D01*
X168865591Y-81880750D01*
X168474500Y-81880750D01*
X168465814Y-81878199D01*
X168456853Y-81879488D01*
X168432812Y-81868509D01*
X168407461Y-81861065D01*
X168401533Y-81854224D01*
X168393297Y-81850463D01*
X168379007Y-81828228D01*
X168361706Y-81808261D01*
X168359418Y-81797746D01*
X168355523Y-81791685D01*
X168350500Y-81756750D01*
X168350500Y-81718279D01*
X168370185Y-81651240D01*
X168400867Y-81618509D01*
X168407393Y-81613692D01*
X168472150Y-81565900D01*
X168552793Y-81456632D01*
X168577158Y-81387000D01*
X168597646Y-81328451D01*
X168597646Y-81328449D01*
X168600500Y-81298019D01*
X168600500Y-80239480D01*
X168597646Y-80209050D01*
X168597646Y-80209048D01*
X168552793Y-80080869D01*
X168552792Y-80080867D01*
X168526589Y-80045363D01*
X168472150Y-79971600D01*
X168362882Y-79890957D01*
X168362880Y-79890956D01*
X168234700Y-79846103D01*
X168204270Y-79843250D01*
X168204266Y-79843250D01*
X167595734Y-79843250D01*
X167595730Y-79843250D01*
X167565300Y-79846103D01*
X167565298Y-79846103D01*
X167437119Y-79890956D01*
X167437117Y-79890957D01*
X167327850Y-79971600D01*
X167247207Y-80080867D01*
X167247206Y-80080869D01*
X167202353Y-80209048D01*
X167202353Y-80209050D01*
X167199500Y-80239480D01*
X167199500Y-81298019D01*
X167202353Y-81328449D01*
X167202353Y-81328451D01*
X167247206Y-81456630D01*
X167247207Y-81456632D01*
X167326961Y-81564696D01*
X167327851Y-81565901D01*
X167399133Y-81618509D01*
X167402154Y-81622488D01*
X167406703Y-81624566D01*
X167423076Y-81650044D01*
X167441384Y-81674156D01*
X167442511Y-81680285D01*
X167444477Y-81683344D01*
X167449500Y-81718279D01*
X167449500Y-81756750D01*
X167429815Y-81823789D01*
X167377011Y-81869544D01*
X167325500Y-81880750D01*
X158850465Y-81880750D01*
X158783426Y-81861065D01*
X158762784Y-81844431D01*
X156536819Y-79618466D01*
X156503334Y-79557143D01*
X156500500Y-79530785D01*
X156500500Y-75466038D01*
X156520185Y-75398999D01*
X156572989Y-75353244D01*
X156600305Y-75344421D01*
X156628231Y-75338867D01*
X156694552Y-75294552D01*
X156738867Y-75228231D01*
X156738867Y-75228229D01*
X156738868Y-75228229D01*
X156750499Y-75169752D01*
X156750500Y-75169750D01*
X156750500Y-74124000D01*
X156770185Y-74056961D01*
X156822989Y-74011206D01*
X156874500Y-74000000D01*
X157675500Y-74000000D01*
X157742539Y-74019685D01*
G37*
%TD.AperFunction*%
%TA.AperFunction,Conductor*%
G36*
X176818012Y-109346605D02*
G01*
X176873945Y-109388477D01*
X176898362Y-109453941D01*
X176898678Y-109462787D01*
X176898678Y-132953154D01*
X176878993Y-133020193D01*
X176826189Y-133065948D01*
X176776011Y-133077147D01*
X174855327Y-133097799D01*
X174788080Y-133078836D01*
X174741760Y-133026527D01*
X174731073Y-132957480D01*
X174750893Y-132904914D01*
X174777545Y-132865027D01*
X174777546Y-132865025D01*
X174789177Y-132806548D01*
X174789178Y-132806546D01*
X174789178Y-131267045D01*
X174789177Y-131267043D01*
X174777546Y-131208566D01*
X174777545Y-131208565D01*
X174733230Y-131142243D01*
X174666908Y-131097928D01*
X174666907Y-131097927D01*
X174608430Y-131086296D01*
X174608426Y-131086296D01*
X173668930Y-131086296D01*
X173668925Y-131086296D01*
X173610448Y-131097927D01*
X173610447Y-131097928D01*
X173572569Y-131123238D01*
X173505891Y-131144116D01*
X173438511Y-131125631D01*
X173434787Y-131123238D01*
X173396908Y-131097928D01*
X173396907Y-131097927D01*
X173338430Y-131086296D01*
X173338426Y-131086296D01*
X172398930Y-131086296D01*
X172398925Y-131086296D01*
X172340448Y-131097927D01*
X172340447Y-131097928D01*
X172302569Y-131123238D01*
X172235891Y-131144116D01*
X172168511Y-131125631D01*
X172164787Y-131123238D01*
X172126908Y-131097928D01*
X172126907Y-131097927D01*
X172068430Y-131086296D01*
X172068426Y-131086296D01*
X171128930Y-131086296D01*
X171128925Y-131086296D01*
X171070448Y-131097927D01*
X171070447Y-131097928D01*
X171032569Y-131123238D01*
X170965891Y-131144116D01*
X170898511Y-131125631D01*
X170894787Y-131123238D01*
X170856908Y-131097928D01*
X170856907Y-131097927D01*
X170798430Y-131086296D01*
X170798426Y-131086296D01*
X169858930Y-131086296D01*
X169858925Y-131086296D01*
X169800448Y-131097927D01*
X169800447Y-131097928D01*
X169762569Y-131123238D01*
X169695891Y-131144116D01*
X169628511Y-131125631D01*
X169624787Y-131123238D01*
X169586908Y-131097928D01*
X169586907Y-131097927D01*
X169528430Y-131086296D01*
X169528426Y-131086296D01*
X168588930Y-131086296D01*
X168588925Y-131086296D01*
X168530448Y-131097927D01*
X168530447Y-131097928D01*
X168492569Y-131123238D01*
X168425891Y-131144116D01*
X168358511Y-131125631D01*
X168354787Y-131123238D01*
X168316908Y-131097928D01*
X168316907Y-131097927D01*
X168258430Y-131086296D01*
X168258426Y-131086296D01*
X167318930Y-131086296D01*
X167318925Y-131086296D01*
X167260448Y-131097927D01*
X167260447Y-131097928D01*
X167222569Y-131123238D01*
X167155891Y-131144116D01*
X167088511Y-131125631D01*
X167084787Y-131123238D01*
X167046908Y-131097928D01*
X167046907Y-131097927D01*
X166988430Y-131086296D01*
X166988426Y-131086296D01*
X166048930Y-131086296D01*
X166048925Y-131086296D01*
X165990448Y-131097927D01*
X165990447Y-131097928D01*
X165952569Y-131123238D01*
X165885891Y-131144116D01*
X165818511Y-131125631D01*
X165814787Y-131123238D01*
X165776908Y-131097928D01*
X165776907Y-131097927D01*
X165718430Y-131086296D01*
X165718426Y-131086296D01*
X164778930Y-131086296D01*
X164778925Y-131086296D01*
X164720448Y-131097927D01*
X164720447Y-131097928D01*
X164682569Y-131123238D01*
X164615891Y-131144116D01*
X164548511Y-131125631D01*
X164544787Y-131123238D01*
X164506908Y-131097928D01*
X164506907Y-131097927D01*
X164448430Y-131086296D01*
X164448426Y-131086296D01*
X163508930Y-131086296D01*
X163508925Y-131086296D01*
X163450448Y-131097927D01*
X163450447Y-131097928D01*
X163412569Y-131123238D01*
X163345891Y-131144116D01*
X163278511Y-131125631D01*
X163274787Y-131123238D01*
X163236908Y-131097928D01*
X163236907Y-131097927D01*
X163178430Y-131086296D01*
X163178426Y-131086296D01*
X162238930Y-131086296D01*
X162238925Y-131086296D01*
X162180448Y-131097927D01*
X162180447Y-131097928D01*
X162142569Y-131123238D01*
X162075891Y-131144116D01*
X162008511Y-131125631D01*
X162004787Y-131123238D01*
X161966908Y-131097928D01*
X161966907Y-131097927D01*
X161908430Y-131086296D01*
X161908426Y-131086296D01*
X160968930Y-131086296D01*
X160968925Y-131086296D01*
X160910448Y-131097927D01*
X160910447Y-131097928D01*
X160872569Y-131123238D01*
X160805891Y-131144116D01*
X160738511Y-131125631D01*
X160734787Y-131123238D01*
X160696908Y-131097928D01*
X160696907Y-131097927D01*
X160638430Y-131086296D01*
X160638426Y-131086296D01*
X159698930Y-131086296D01*
X159698925Y-131086296D01*
X159640448Y-131097927D01*
X159640447Y-131097928D01*
X159602569Y-131123238D01*
X159535891Y-131144116D01*
X159468511Y-131125631D01*
X159464787Y-131123238D01*
X159426908Y-131097928D01*
X159426907Y-131097927D01*
X159368430Y-131086296D01*
X159368426Y-131086296D01*
X158622645Y-131086296D01*
X158555606Y-131066611D01*
X158509851Y-131013807D01*
X158499907Y-130944649D01*
X158528932Y-130881093D01*
X158534964Y-130874615D01*
X158543229Y-130866349D01*
X158543230Y-130866348D01*
X158587545Y-130800027D01*
X158587545Y-130800025D01*
X158587546Y-130800025D01*
X158599177Y-130741548D01*
X158599178Y-130741546D01*
X158599178Y-129802045D01*
X158599177Y-129802043D01*
X158587546Y-129743566D01*
X158587545Y-129743564D01*
X158562236Y-129705688D01*
X158541357Y-129639011D01*
X158559841Y-129571631D01*
X158562236Y-129567904D01*
X158587545Y-129530027D01*
X158587546Y-129530025D01*
X158599177Y-129471548D01*
X158599178Y-129471546D01*
X158599178Y-128532045D01*
X158599177Y-128532043D01*
X158587546Y-128473566D01*
X158587545Y-128473564D01*
X158562236Y-128435688D01*
X158541357Y-128369011D01*
X158559841Y-128301631D01*
X158562236Y-128297904D01*
X158587545Y-128260027D01*
X158587546Y-128260025D01*
X158599177Y-128201548D01*
X158599178Y-128201546D01*
X158599178Y-127262045D01*
X158599177Y-127262043D01*
X158587546Y-127203566D01*
X158587545Y-127203564D01*
X158562236Y-127165688D01*
X158541357Y-127099011D01*
X158559841Y-127031631D01*
X158562236Y-127027904D01*
X158587545Y-126990027D01*
X158587546Y-126990025D01*
X158599177Y-126931548D01*
X158599178Y-126931546D01*
X158599178Y-125992045D01*
X158599177Y-125992043D01*
X158587546Y-125933566D01*
X158587545Y-125933564D01*
X158562236Y-125895688D01*
X158541357Y-125829011D01*
X158559841Y-125761631D01*
X158562236Y-125757904D01*
X158587545Y-125720027D01*
X158587546Y-125720025D01*
X158599177Y-125661548D01*
X158599178Y-125661546D01*
X158599178Y-124722045D01*
X158599177Y-124722043D01*
X158587546Y-124663566D01*
X158587545Y-124663564D01*
X158562236Y-124625688D01*
X158541357Y-124559011D01*
X158559841Y-124491631D01*
X158562236Y-124487904D01*
X158587545Y-124450027D01*
X158587546Y-124450025D01*
X158599177Y-124391548D01*
X158599178Y-124391546D01*
X158599178Y-123452045D01*
X158599177Y-123452043D01*
X158587546Y-123393566D01*
X158587545Y-123393564D01*
X158562236Y-123355688D01*
X158541357Y-123289011D01*
X158559841Y-123221631D01*
X158562236Y-123217904D01*
X158587545Y-123180027D01*
X158587546Y-123180025D01*
X158599177Y-123121548D01*
X158599178Y-123121546D01*
X158599178Y-122182045D01*
X158599177Y-122182043D01*
X158587546Y-122123566D01*
X158587545Y-122123564D01*
X158562236Y-122085688D01*
X158541357Y-122019011D01*
X158559841Y-121951631D01*
X158562236Y-121947904D01*
X158587545Y-121910027D01*
X158587546Y-121910025D01*
X158596230Y-121866364D01*
X158599178Y-121851544D01*
X158599178Y-121637628D01*
X158618863Y-121570589D01*
X158635492Y-121549952D01*
X159196616Y-120988827D01*
X159257939Y-120955343D01*
X159327631Y-120960327D01*
X159371978Y-120988828D01*
X159374764Y-120991614D01*
X159374765Y-120991615D01*
X159467951Y-121084801D01*
X159582079Y-121150693D01*
X159709373Y-121184801D01*
X159709375Y-121184801D01*
X159841155Y-121184801D01*
X159841157Y-121184801D01*
X159968451Y-121150693D01*
X160082579Y-121084801D01*
X160175765Y-120991615D01*
X160241657Y-120877487D01*
X160275765Y-120750193D01*
X160275765Y-120618409D01*
X160275124Y-120616016D01*
X160275173Y-120613920D01*
X160274704Y-120610352D01*
X160275260Y-120610278D01*
X160276785Y-120546166D01*
X160307215Y-120496242D01*
X160816640Y-119986819D01*
X160877963Y-119953334D01*
X160904321Y-119950500D01*
X163389560Y-119950500D01*
X163389562Y-119950500D01*
X163465989Y-119930021D01*
X163534511Y-119890460D01*
X163590460Y-119834511D01*
X165088152Y-118336819D01*
X165149475Y-118303334D01*
X165175833Y-118300500D01*
X167879560Y-118300500D01*
X167879562Y-118300500D01*
X167955989Y-118280021D01*
X168024511Y-118240460D01*
X168080460Y-118184511D01*
X170480460Y-115784511D01*
X170520022Y-115715988D01*
X170540500Y-115639562D01*
X170540500Y-115611296D01*
X170560185Y-115544257D01*
X170612989Y-115498502D01*
X170664500Y-115487296D01*
X170798428Y-115487296D01*
X170798429Y-115487295D01*
X170813246Y-115484348D01*
X170856907Y-115475664D01*
X170856909Y-115475663D01*
X170894786Y-115450354D01*
X170961463Y-115429475D01*
X171028843Y-115447959D01*
X171032570Y-115450354D01*
X171070446Y-115475663D01*
X171070448Y-115475664D01*
X171128925Y-115487295D01*
X171128928Y-115487296D01*
X171128930Y-115487296D01*
X172068428Y-115487296D01*
X172068429Y-115487295D01*
X172083246Y-115484348D01*
X172126907Y-115475664D01*
X172126909Y-115475663D01*
X172164786Y-115450354D01*
X172231463Y-115429475D01*
X172298843Y-115447959D01*
X172302570Y-115450354D01*
X172340446Y-115475663D01*
X172340448Y-115475664D01*
X172398925Y-115487295D01*
X172398928Y-115487296D01*
X172398930Y-115487296D01*
X173338428Y-115487296D01*
X173338429Y-115487295D01*
X173353246Y-115484348D01*
X173396907Y-115475664D01*
X173396909Y-115475663D01*
X173434786Y-115450354D01*
X173501463Y-115429475D01*
X173568843Y-115447959D01*
X173572570Y-115450354D01*
X173610446Y-115475663D01*
X173610448Y-115475664D01*
X173668925Y-115487295D01*
X173668928Y-115487296D01*
X173668930Y-115487296D01*
X174608428Y-115487296D01*
X174608429Y-115487295D01*
X174623246Y-115484348D01*
X174666907Y-115475664D01*
X174666907Y-115475663D01*
X174666909Y-115475663D01*
X174733230Y-115431348D01*
X174777545Y-115365027D01*
X174777545Y-115365025D01*
X174777546Y-115365025D01*
X174788239Y-115311263D01*
X174789178Y-115306544D01*
X174789178Y-113767048D01*
X174789178Y-113767045D01*
X174789177Y-113767043D01*
X174777546Y-113708566D01*
X174777545Y-113708565D01*
X174733230Y-113642243D01*
X174666908Y-113597928D01*
X174666907Y-113597927D01*
X174602452Y-113585107D01*
X174602895Y-113582876D01*
X174547517Y-113560487D01*
X174507182Y-113503435D01*
X174500500Y-113463278D01*
X174500500Y-111612965D01*
X174520185Y-111545926D01*
X174536819Y-111525284D01*
X176686997Y-109375106D01*
X176748320Y-109341621D01*
X176818012Y-109346605D01*
G37*
%TD.AperFunction*%
%TA.AperFunction,Conductor*%
G36*
X153282223Y-115950998D02*
G01*
X153302865Y-115967632D01*
X153366546Y-116031313D01*
X153480674Y-116097205D01*
X153607968Y-116131313D01*
X153607970Y-116131313D01*
X153739750Y-116131313D01*
X153739752Y-116131313D01*
X153867046Y-116097205D01*
X153981174Y-116031313D01*
X153981175Y-116031311D01*
X153988212Y-116027249D01*
X153989634Y-116029712D01*
X154041951Y-116009483D01*
X154110397Y-116023516D01*
X154160390Y-116072326D01*
X154176277Y-116133052D01*
X154176277Y-119926618D01*
X154156592Y-119993657D01*
X154103788Y-120039412D01*
X154034630Y-120049356D01*
X153971074Y-120020331D01*
X153944890Y-119988619D01*
X153924518Y-119953334D01*
X153907573Y-119923984D01*
X153814387Y-119830798D01*
X153717585Y-119774909D01*
X153700260Y-119764906D01*
X153636612Y-119747852D01*
X153572965Y-119730798D01*
X153441181Y-119730798D01*
X153313885Y-119764906D01*
X153199759Y-119830798D01*
X153199756Y-119830800D01*
X153136078Y-119894479D01*
X153074755Y-119927964D01*
X153048397Y-119930798D01*
X150297539Y-119930798D01*
X150230500Y-119911113D01*
X150209858Y-119894479D01*
X147877873Y-117562494D01*
X147844388Y-117501171D01*
X147849372Y-117431479D01*
X147891244Y-117375546D01*
X147956708Y-117351129D01*
X147965554Y-117350813D01*
X148209154Y-117350813D01*
X148209155Y-117350812D01*
X148223972Y-117347865D01*
X148267633Y-117339181D01*
X148267635Y-117339180D01*
X148280069Y-117330872D01*
X148320512Y-117303847D01*
X148387189Y-117282969D01*
X148454569Y-117301453D01*
X148458296Y-117303848D01*
X148511172Y-117339180D01*
X148511174Y-117339181D01*
X148569651Y-117350812D01*
X148569654Y-117350813D01*
X148569656Y-117350813D01*
X149309154Y-117350813D01*
X149309155Y-117350812D01*
X149323972Y-117347865D01*
X149367633Y-117339181D01*
X149367633Y-117339180D01*
X149367635Y-117339180D01*
X149433956Y-117294865D01*
X149478271Y-117228544D01*
X149478271Y-117228542D01*
X149478272Y-117228542D01*
X149489903Y-117170065D01*
X149489904Y-117170063D01*
X149489904Y-116055313D01*
X149509589Y-115988274D01*
X149562393Y-115942519D01*
X149613904Y-115931313D01*
X153215184Y-115931313D01*
X153282223Y-115950998D01*
G37*
%TD.AperFunction*%
%TA.AperFunction,Conductor*%
G36*
X154847539Y-108130185D02*
G01*
X154893294Y-108182989D01*
X154904500Y-108234500D01*
X154904500Y-110209752D01*
X154916131Y-110268229D01*
X154916132Y-110268230D01*
X154960447Y-110334552D01*
X155026769Y-110378867D01*
X155026770Y-110378868D01*
X155085247Y-110390499D01*
X155085250Y-110390500D01*
X155085252Y-110390500D01*
X156634750Y-110390500D01*
X156634751Y-110390499D01*
X156649568Y-110387552D01*
X156693229Y-110378868D01*
X156693229Y-110378867D01*
X156693231Y-110378867D01*
X156759552Y-110334552D01*
X156803867Y-110268231D01*
X156803867Y-110268229D01*
X156803868Y-110268229D01*
X156815499Y-110209752D01*
X156815500Y-110209750D01*
X156815500Y-108234500D01*
X156835185Y-108167461D01*
X156887989Y-108121706D01*
X156939500Y-108110500D01*
X157320500Y-108110500D01*
X157387539Y-108130185D01*
X157433294Y-108182989D01*
X157444500Y-108234500D01*
X157444500Y-110209752D01*
X157456131Y-110268229D01*
X157456132Y-110268230D01*
X157500447Y-110334552D01*
X157566769Y-110378867D01*
X157566770Y-110378868D01*
X157625247Y-110390499D01*
X157625250Y-110390500D01*
X157625252Y-110390500D01*
X159174750Y-110390500D01*
X159174751Y-110390499D01*
X159189568Y-110387552D01*
X159233229Y-110378868D01*
X159233229Y-110378867D01*
X159233231Y-110378867D01*
X159299552Y-110334552D01*
X159343867Y-110268231D01*
X159343867Y-110268229D01*
X159343868Y-110268229D01*
X159355499Y-110209752D01*
X159355500Y-110209750D01*
X159355500Y-109574500D01*
X159375185Y-109507461D01*
X159427989Y-109461706D01*
X159479500Y-109450500D01*
X160667621Y-109450500D01*
X160734660Y-109470185D01*
X160755302Y-109486819D01*
X160826334Y-109557851D01*
X160940462Y-109623743D01*
X161067756Y-109657851D01*
X161067758Y-109657851D01*
X161199538Y-109657851D01*
X161199540Y-109657851D01*
X161326834Y-109623743D01*
X161440962Y-109557851D01*
X161534148Y-109464665D01*
X161600040Y-109350537D01*
X161634148Y-109223243D01*
X161634148Y-109091459D01*
X161600040Y-108964165D01*
X161534148Y-108850037D01*
X161440962Y-108756851D01*
X161383898Y-108723905D01*
X161326835Y-108690959D01*
X161251722Y-108670833D01*
X161199540Y-108656851D01*
X161067756Y-108656851D01*
X160940460Y-108690959D01*
X160826334Y-108756851D01*
X160826331Y-108756853D01*
X160770004Y-108813181D01*
X160708681Y-108846666D01*
X160682323Y-108849500D01*
X159479500Y-108849500D01*
X159412461Y-108829815D01*
X159366706Y-108777011D01*
X159355500Y-108725500D01*
X159355500Y-108234500D01*
X159375185Y-108167461D01*
X159427989Y-108121706D01*
X159479500Y-108110500D01*
X167024167Y-108110500D01*
X167091206Y-108130185D01*
X167111848Y-108146819D01*
X167548181Y-108583152D01*
X167581666Y-108644475D01*
X167584500Y-108670833D01*
X167584500Y-110209752D01*
X167596131Y-110268229D01*
X167596132Y-110268230D01*
X167640447Y-110334552D01*
X167706769Y-110378867D01*
X167718054Y-110383542D01*
X167717179Y-110385653D01*
X167764543Y-110410429D01*
X167799118Y-110471144D01*
X167795379Y-110540914D01*
X167754513Y-110597586D01*
X167689495Y-110623168D01*
X167678442Y-110623662D01*
X166766529Y-110623662D01*
X166697782Y-110642082D01*
X166651950Y-110654363D01*
X166651945Y-110654366D01*
X166549231Y-110713667D01*
X166549223Y-110713673D01*
X166349716Y-110913181D01*
X166288393Y-110946666D01*
X166262035Y-110949500D01*
X155559309Y-110949500D01*
X152059309Y-110949500D01*
X151259309Y-110949500D01*
X151140691Y-110949500D01*
X151026114Y-110980201D01*
X151026112Y-110980201D01*
X151026112Y-110980202D01*
X150923387Y-111039511D01*
X150923384Y-111039513D01*
X150839513Y-111123384D01*
X150839511Y-111123387D01*
X150798734Y-111194015D01*
X150780201Y-111226114D01*
X150749500Y-111340691D01*
X150749500Y-111340693D01*
X150749500Y-113566892D01*
X150729815Y-113633931D01*
X150677011Y-113679686D01*
X150625500Y-113690892D01*
X147329357Y-113690892D01*
X147262318Y-113671207D01*
X147241676Y-113654573D01*
X146736819Y-113149716D01*
X146703334Y-113088393D01*
X146700500Y-113062035D01*
X146700500Y-112520730D01*
X146697646Y-112490300D01*
X146697646Y-112490298D01*
X146659763Y-112382037D01*
X146652793Y-112362118D01*
X146642648Y-112348372D01*
X146618678Y-112282746D01*
X146633993Y-112214575D01*
X146683733Y-112165507D01*
X146742419Y-112150740D01*
X148404320Y-112150740D01*
X148404322Y-112150740D01*
X148480749Y-112130261D01*
X148549271Y-112090700D01*
X148605220Y-112034751D01*
X150213152Y-110426819D01*
X150274475Y-110393334D01*
X150300833Y-110390500D01*
X151554750Y-110390500D01*
X151554751Y-110390499D01*
X151569568Y-110387552D01*
X151613229Y-110378868D01*
X151613229Y-110378867D01*
X151613231Y-110378867D01*
X151679552Y-110334552D01*
X151723867Y-110268231D01*
X151723867Y-110268229D01*
X151723868Y-110268229D01*
X151735499Y-110209752D01*
X151735500Y-110209750D01*
X151735500Y-109574500D01*
X151755185Y-109507461D01*
X151807989Y-109461706D01*
X151859500Y-109450500D01*
X152240500Y-109450500D01*
X152307539Y-109470185D01*
X152353294Y-109522989D01*
X152364500Y-109574500D01*
X152364500Y-110209752D01*
X152376131Y-110268229D01*
X152376132Y-110268230D01*
X152420447Y-110334552D01*
X152486769Y-110378867D01*
X152486770Y-110378868D01*
X152545247Y-110390499D01*
X152545250Y-110390500D01*
X152545252Y-110390500D01*
X154094750Y-110390500D01*
X154094751Y-110390499D01*
X154109568Y-110387552D01*
X154153229Y-110378868D01*
X154153229Y-110378867D01*
X154153231Y-110378867D01*
X154219552Y-110334552D01*
X154263867Y-110268231D01*
X154263867Y-110268229D01*
X154263868Y-110268229D01*
X154275499Y-110209752D01*
X154275500Y-110209750D01*
X154275500Y-108234500D01*
X154295185Y-108167461D01*
X154347989Y-108121706D01*
X154399500Y-108110500D01*
X154780500Y-108110500D01*
X154847539Y-108130185D01*
G37*
%TD.AperFunction*%
%TD*%
M02*
