M48
; DRILL file KiCad 10.0.4 date 2026-06-24T13:22:43
; FORMAT={-:-/ absolute / metric / decimal}
; #@! TF.CreationDate,2026-06-24T13:22:43-07:00
; #@! TF.GenerationSoftware,Kicad,Pcbnew,10.0.4
; #@! TF.FileFunction,Plated,1,2,PTH
FMAT,2
METRIC
; #@! TA.AperFunction,Plated,PTH,ViaDrill
T1C0.300
; #@! TA.AperFunction,Plated,PTH,ComponentDrill
T2C0.300
; #@! TA.AperFunction,Plated,PTH,ComponentDrill
T3C1.000
%
G90
G05
T1
X-770.0Y-120.0
X138.55Y-113.554
X139.339Y-120.85
X139.339Y-131.2
X140.5Y-86.0
X140.62Y-109.15
X141.5Y-113.554
X143.439Y-116.55
X144.1Y-113.05
X145.5Y-80.5
X146.457Y-110.61
X147.608Y-118.908
X147.936Y-111.25
X148.24Y-109.15
X150.489Y-116.55
X152.392Y-113.304
X152.681Y-114.643
X152.839Y-131.65
X153.32Y-109.15
X153.364Y-121.438
X153.507Y-120.231
X153.674Y-115.631
X154.805Y-113.369
X155.0Y-82.925
X155.86Y-109.15
X155.86Y-113.109
X156.0Y-86.0
X156.335Y-120.225
X157.56Y-118.955
X158.0Y-112.5
X158.4Y-86.0
X159.185Y-119.421
X159.775Y-120.684
X160.0Y-112.5
X161.0Y-79.35
X161.134Y-109.157
X161.308Y-112.209
X162.5Y-81.5
X163.0Y-79.35
X165.314Y-106.099
X165.339Y-112.334
X166.0Y-81.5
X166.0Y-86.0
X166.0Y-109.15
X168.5Y-86.0
X170.162Y-77.737
X171.0Y-86.0
X171.08Y-109.15
X171.51Y-114.65
X175.32Y-114.65
X175.32Y-132.15
X178.982Y-78.882
X178.982Y-82.882
T2
X166.289Y-121.087
X166.289Y-122.487
X166.989Y-120.387
X166.989Y-121.787
X166.989Y-123.187
X167.689Y-121.087
X167.689Y-122.487
X168.389Y-120.387
X168.389Y-121.787
X168.389Y-123.187
X169.089Y-121.087
X169.089Y-122.487
T3
G00X154.15Y-77.65
M15
G01X154.15Y-76.15
M16
G05
G00X165.85Y-77.65
M15
G01X165.85Y-76.15
M16
G05
M30
